<?xml version="1.0" encoding="utf-8"?>
<!-- Generator: Adobe Illustrator 27.5.0, SVG Export Plug-In . SVG Version: 6.00 Build 0)  -->
<svg version="1.1" id="Capa_2" xmlns="http://www.w3.org/2000/svg" xmlns:xlink="http://www.w3.org/1999/xlink" x="0px" y="0px"
	 viewBox="0 0 2122 2122" style="enable-background:new 0 0 2122 2122;" xml:space="preserve">
<path style="fill:#998018;" d="M1710.133,1142.359c0.442-0.903,0.88-1.807,1.318-2.714l0.359-0.747
	c0.333-0.694,0.666-1.389,0.996-2.085l0.363-0.766c0.435-0.917,0.867-1.835,1.296-2.755l0.016-0.034
	c0.421-0.903,0.839-1.809,1.255-2.715l0.309-0.675c0.366-0.8,0.73-1.601,1.092-2.403l0.181-0.399
	c0.886-1.964,1.759-3.935,2.62-5.911l0.102-0.236c39.099-89.85,53.441-192.526,10.372-280.033
	c-88.223,47.846-150.857,134.754-184.898,229.165c-31.393,87.062-40.47,180.505-40.729,273.22
	c-2.502-10.119-5.04-20.229-7.62-30.328c-6.322-24.737-12.889-49.412-19.727-74.014l0.559-1.331
	c0.939-2.248,1.867-4.504,2.783-6.764c1.833-4.522,3.617-9.068,5.347-13.638c0.576-1.523,1.146-3.049,1.711-4.578
	c1.975-5.35,3.873-10.731,5.685-16.143c0.776-2.32,1.536-4.645,2.28-6.976c1.983-6.216,3.846-12.473,5.576-18.769
	c0.433-1.574,0.856-3.15,1.272-4.729c5.607-21.313,9.641-43.068,11.524-65.218l0.002-0.027c0.085-1.007,0.168-2.015,0.248-3.023
	l0.057-0.726c0.063-0.814,0.125-1.629,0.185-2.444l0.052-0.698c0.074-1.02,0.144-2.04,0.212-3.061l0.015-0.236
	c0.063-0.964,0.124-1.928,0.182-2.893l0.035-0.591c0.056-0.941,0.109-1.882,0.16-2.824l0.015-0.29
	c0.057-1.081,0.112-2.161,0.162-3.242l0.005-0.116c0.049-1.052,0.094-2.104,0.137-3.158l0.01-0.231
	c0.736-18.336,0.501-36.777-0.841-55.074c1.324-2.253,2.637-4.516,3.934-6.789c0.351-0.615,0.702-1.231,1.051-1.849
	c6.637-11.719,12.903-23.699,18.621-35.948c1.806-3.867,3.557-7.762,5.247-11.684c1.126-2.614,2.228-5.241,3.299-7.879
	c0.804-1.979,1.592-3.965,2.363-5.957c1.542-3.985,3.018-7.997,4.421-12.037c0.701-2.02,1.385-4.047,2.05-6.08
	c0.443-1.356,0.878-2.715,1.304-4.076c0.213-0.682,0.424-1.363,0.633-2.045c0.418-1.365,0.827-2.733,1.227-4.105
	c0.2-0.685,0.398-1.371,0.594-2.059c0.587-2.061,1.154-4.13,1.7-6.205c1.274-4.842,2.435-9.723,3.473-14.642
	c0.181-0.858,0.359-1.717,0.535-2.577l0.154-0.755c0.127-0.628,0.253-1.255,0.379-1.883l0.151-0.761
	c0.173-0.872,0.342-1.745,0.51-2.619l0.003-0.022c0.168-0.874,0.331-1.748,0.494-2.623l0.102-0.553
	c0.14-0.762,0.279-1.525,0.415-2.288l0.07-0.388c0.165-0.924,0.326-1.849,0.485-2.775l0.003-0.014
	c0.158-0.918,0.312-1.837,0.464-2.757l0.04-0.246c13.894-84.338,4.112-174.239-50.989-239.061
	c-50.29,46.296-82.303,109.404-98.039,176.314c-22.918,28.22-40.861,59.922-54.241,93.648
	c-9.254-22.062-18.853-43.979-28.817-65.728c9.07-18.045,18.745-36.799,28.3-56.182c0.319-0.648,0.638-1.296,0.957-1.945
	c1.596-3.245,3.186-6.508,4.769-9.788c0.317-0.656,0.633-1.313,0.949-1.97c2.844-5.915,5.662-11.888,8.435-17.912
	c2.157-4.686,4.285-9.404,6.377-14.154c0.597-1.357,1.192-2.716,1.784-4.078c1.774-4.086,3.519-8.195,5.229-12.326
	c0.57-1.377,1.136-2.756,1.698-4.138c17.703-43.53,31.336-89.476,34.143-137.121c0.054-0.913,0.104-1.828,0.153-2.742l0.044-0.829
	c0.037-0.713,0.072-1.427,0.106-2.141l0.032-0.682c0.043-0.925,0.083-1.85,0.12-2.775l0.013-0.351
	c0.034-0.846,0.064-1.692,0.093-2.538l0.021-0.606c0.026-0.819,0.051-1.637,0.074-2.457l0.012-0.417
	c0.027-0.987,0.05-1.974,0.071-2.96l0.001-0.038c0.021-0.976,0.036-1.953,0.051-2.93l0.003-0.26
	c1.274-90.152-23.021-182.396-90.659-241.376c-57.892,71.948-80.19,167.964-75.552,260.195
	c3.656,72.716,22.815,143.597,48.739,211.869c-1.774-3.611-3.554-7.22-5.35-10.821c-7.485-15.009-15.16-29.923-23.03-44.735
	c-5.662-23.993-11.392-48.92-17.68-74.268c-0.934-3.762-1.879-7.534-2.839-11.313c-3.598-14.171-7.392-28.449-11.467-42.746
	c-0.543-1.906-1.092-3.812-1.645-5.719c-2.491-8.58-5.086-17.161-7.806-25.726c-0.906-2.855-1.827-5.708-2.762-8.559
	c-0.623-1.901-1.253-3.8-1.888-5.698c-0.318-0.949-0.638-1.897-0.96-2.845c-2.892-8.534-5.921-17.039-9.104-25.494
	c-0.708-1.879-1.423-3.756-2.145-5.63c-0.724-1.874-1.453-3.745-2.193-5.614c-0.738-1.868-1.485-3.734-2.24-5.597
	c-3.773-9.314-7.753-18.551-11.963-27.686c-0.422-0.914-0.845-1.826-1.271-2.738c-14.047-30.077-30.635-59.012-50.67-85.86
	c-0.57-0.763-1.142-1.526-1.715-2.287l-0.232-0.309c-1.122-1.488-2.251-2.972-3.386-4.452l-0.417-0.542
	c-0.486-0.632-0.973-1.264-1.462-1.894l-0.224-0.289c-0.538-0.695-1.08-1.388-1.622-2.082l-0.485-0.62
	c-0.416-0.53-0.832-1.06-1.25-1.589l-0.498-0.63c-0.503-0.637-1.008-1.272-1.515-1.906l-0.636-0.796
	c-0.362-0.451-0.723-0.902-1.086-1.354l-0.632-0.785c-0.474-0.588-0.951-1.175-1.427-1.762l-0.895-1.097l-0.704-0.862
	c-1.141-1.393-2.289-2.782-3.443-4.166l-0.295-0.353c-76.136-91.196-179.123-162.289-297.281-164.322
	c2.766,123.713,62.791,241.37,147.154,331.898c79.701,85.526,179.945,149.138,284.169,202.447l0.684,0.35
	c0.497,0.254,0.994,0.509,1.491,0.762c2.39,4.525,4.765,9.058,7.119,13.602c27.418,52.927,52.399,107.091,75.253,162.139
	c-1.515-2.671-3.041-5.345-4.579-8.022c-0.789-1.373-1.581-2.746-2.377-4.121c-0.398-0.687-0.796-1.375-1.196-2.062
	c-3.595-6.184-7.258-12.375-10.999-18.554c-9.56-15.789-19.632-31.495-30.384-46.802c-1.87-2.662-3.761-5.312-5.673-7.948
	c-24.378-33.612-52.25-64.989-85.472-90.681c-0.802-0.62-1.606-1.238-2.413-1.854l-0.63-0.48c-0.627-0.477-1.255-0.954-1.884-1.429
	l-0.597-0.451c-0.818-0.616-1.637-1.229-2.459-1.84l-0.151-0.112c-0.787-0.585-1.576-1.167-2.367-1.749l-0.473-0.347
	c-0.734-0.538-1.469-1.074-2.206-1.608l-0.355-0.258c-0.866-0.626-1.733-1.25-2.602-1.872l-0.075-0.053
	c-0.853-0.609-1.708-1.215-2.565-1.82l-0.244-0.172c-3.21-2.26-6.447-4.486-9.711-6.674c-9.713-7.686-20.133-14.609-31.291-20.647
	l-0.506,1.043c-34.654-19.533-71.625-34.463-109.521-42.281c-31.515-84.077-87.431-160.746-171.468-191.118
	c-27.929,88.023-13.965,185.6,23.738,269.9c31.025,69.368,77.07,130.761,128.553,186.955c-4.151-3.85-8.318-7.683-12.502-11.497
	c-12.68-11.563-25.51-22.963-38.492-34.19c-15.627-22.706-31.74-46.52-48.727-70.511c-1.123-1.586-2.251-3.173-3.381-4.761
	c-4.525-6.352-9.112-12.711-13.769-19.061c-1.164-1.587-2.333-3.174-3.506-4.761c-15.839-21.413-32.496-42.674-50.247-63.121
	c-1.973-2.271-3.959-4.533-5.959-6.785c-5.332-6.002-10.763-11.927-16.301-17.756c-1.384-1.457-2.775-2.909-4.173-4.354
	c-4.193-4.335-8.446-8.615-12.764-12.831c-0.72-0.703-1.441-1.404-2.165-2.103c-5.784-5.593-11.683-11.072-17.703-16.42
	c-1.505-1.337-3.018-2.666-4.538-3.985c-1.52-1.32-3.048-2.632-4.584-3.935c-2.304-1.954-4.625-3.889-6.964-5.803
	c-5.458-4.466-11.013-8.819-16.671-13.048c-3.233-2.417-6.499-4.794-9.801-7.127c-1.65-1.167-3.309-2.323-4.977-3.468
	c-5.003-3.436-10.084-6.774-15.246-10.006c-0.749-0.469-1.5-0.936-2.251-1.402l-0.693-0.43c-0.698-0.432-1.398-0.863-2.097-1.293
	l-0.17-0.105c-0.745-0.457-1.493-0.912-2.241-1.367l-0.731-0.444c-0.623-0.378-1.246-0.754-1.87-1.129l-0.439-0.264
	c-0.745-0.448-1.493-0.894-2.24-1.339l-0.673-0.4c-0.582-0.345-1.164-0.689-1.747-1.033l-0.706-0.415
	c-0.646-0.38-1.295-0.759-1.944-1.137l-1.232-0.716l-1.084-0.627l-1.164-0.671c-0.608-0.349-1.215-0.697-1.825-1.045
	c-0.485-0.276-0.97-0.551-1.455-0.827l-0.623-0.352c-1.686-0.953-3.376-1.898-5.072-2.836l-0.106-0.059
	c-104.009-57.505-225.798-86.546-336.728-45.661c47.353,114.325,145.891,202.282,257.298,256.141
	c106.449,51.462,224.374,74.424,342.149,86.283c2.821,2.455,5.638,4.915,8.445,7.386c29.173,25.686,57.566,52.241,85.233,79.538
	c-4.1,0.822-8.18,1.754-12.236,2.799c-1.161-0.825-2.323-1.647-3.49-2.466c-1.328-0.932-2.659-1.861-3.994-2.785
	c-3.338-2.311-6.697-4.596-10.08-6.852c-2.031-1.354-4.068-2.696-6.116-4.028c-1.364-0.888-2.732-1.771-4.105-2.648
	c-2.744-1.755-5.503-3.489-8.278-5.2c-0.693-0.428-1.387-0.854-2.083-1.279c-2.372-1.449-4.756-2.88-7.15-4.293
	c-2.521-1.488-5.053-2.958-7.599-4.404c-3.297-1.873-6.617-3.71-9.958-5.508c-1.218-0.656-2.438-1.306-3.662-1.951
	c-1.672-0.882-3.35-1.753-5.033-2.615c-1.699-0.87-3.403-1.73-5.114-2.579c-2.194-1.088-4.397-2.158-6.611-3.209
	c-1.475-0.701-2.954-1.394-4.438-2.078c-2.226-1.026-4.46-2.034-6.705-3.02c-1.496-0.658-2.996-1.307-4.501-1.947
	c-2.257-0.96-4.523-1.899-6.8-2.817c-3.794-1.53-7.614-3.001-11.462-4.409c-6.927-2.534-13.941-4.864-21.047-6.969
	c-0.961-0.284-1.925-0.566-2.888-0.845l-0.853-0.246c-0.712-0.206-1.426-0.41-2.14-0.612l-0.837-0.237
	c-0.955-0.269-1.911-0.537-2.868-0.801l-0.424-0.116c-0.857-0.236-1.714-0.469-2.573-0.701l-0.723-0.195
	c-0.861-0.23-1.722-0.459-2.585-0.686L891,905.532c-2.067-0.541-4.137-1.07-6.212-1.586l-0.407-0.101
	c-95.097-23.584-198.71-20.624-277.821,36.4c61.871,79.045,158.007,126.353,256.785,144.213
	c70.723,12.788,143.002,11.666,214.605,3.424c36.976,30.233,80.295,53.385,125.477,69.083c7.918,2.751,15.894,5.29,23.92,7.634
	c12.068,14.634,23.99,29.389,35.772,44.257c-6.598-1.697-13.215-3.309-19.851-4.832l-0.687-0.35
	c-3.672-1.87-7.368-3.735-11.088-5.59c-4.34-2.163-8.711-4.312-13.113-6.437c-4.403-2.125-8.837-4.228-13.301-6.297
	c-1.914-0.887-3.833-1.768-5.756-2.643c-5.132-2.332-10.303-4.617-15.512-6.842c-3.255-1.391-6.526-2.758-9.811-4.098
	c-2.629-1.072-5.266-2.128-7.912-3.164c-0.661-0.26-1.324-0.517-1.987-0.774c-6.627-2.568-13.312-5.016-20.052-7.318
	c-1.347-0.461-2.698-0.915-4.051-1.364c-2.704-0.897-5.418-1.771-8.139-2.618c-2.722-0.847-5.452-1.669-8.191-2.464
	c-1.369-0.398-2.741-0.787-4.114-1.171c-2.06-0.575-4.125-1.134-6.194-1.677c-1.38-0.362-2.761-0.716-4.145-1.063
	c-0.692-0.174-1.384-0.345-2.077-0.515c-3.464-0.848-6.941-1.648-10.431-2.397c-1.395-0.299-2.793-0.591-4.193-0.874
	c-13.297-2.689-26.77-4.62-40.403-5.62l-0.024-0.001c-0.878-0.064-1.756-0.125-2.635-0.185l-0.638-0.042
	c-0.731-0.048-1.463-0.095-2.194-0.14l-0.535-0.033c-0.903-0.054-1.807-0.107-2.711-0.156l-0.153-0.008
	c-0.86-0.046-1.719-0.09-2.579-0.132l-0.513-0.025c-0.816-0.039-1.633-0.075-2.451-0.11l-0.276-0.012
	c-0.938-0.039-1.876-0.075-2.814-0.108l-0.163-0.005c-0.884-0.031-1.771-0.059-2.656-0.085l-0.312-0.009
	c-85.579-2.427-173.486,19.394-230.403,82.812c67.535,55.951,158.408,78.428,246.052,75.277c8.062-0.29,16.103-0.782,24.121-1.461
	c14.262,16.7,30.013,32.197,46.922,46.439c-80.987,0.774-160.697,22.985-218.404,79.249
	c72.862,69.045,174.929,101.641,275.261,104.723c94.788,2.911,188.677-18.526,278.902-48.139l0.599-0.197
	c0.645-0.212,1.289-0.422,1.934-0.635c18.734,28.323,37.2,56.824,55.455,85.456c12.959,20.324,25.81,40.715,38.58,61.158
	c15.824,81.992,30.399,164.221,44.805,246.473c2.158,12.323,4.313,24.647,6.467,36.972c0.642,3.674,15.199,0.371,14.457-3.874
	c-14.247-81.5-28.5-163.006-43.812-244.314c32.684,52.826,64.902,105.943,97.038,159.104c6.52,10.785,13.035,21.573,19.552,32.36
	c2.421,4.008,16.047-1.241,14.457-3.873c-45.788-75.803-91.586-151.61-138.505-226.719c-0.862-4.465-1.726-8.93-2.595-13.394
	c-15.851-81.387-32.999-162.542-52.491-243.138c1.228-1.536,2.45-3.075,3.663-4.621
	C1582.641,1300.316,1665.67,1233.21,1710.133,1142.359z M1513.849,1447.315c-4.238-5.575-8.525-11.207-12.87-16.876
	c-0.471-0.614-0.943-1.229-1.414-1.844c-2.36-3.076-4.739-6.161-7.134-9.253c-0.959-1.237-1.92-2.474-2.884-3.713
	c-2.412-3.096-4.84-6.198-7.291-9.301c-0.49-0.621-0.981-1.241-1.472-1.862c-3.441-4.345-6.922-8.692-10.445-13.031
	c-2.516-3.099-5.056-6.194-7.618-9.283c-2.562-3.088-5.148-6.168-7.758-9.238c-0.522-0.614-1.045-1.227-1.569-1.84
	c-2.62-3.065-5.265-6.119-7.935-9.157c-0.535-0.608-1.069-1.214-1.606-1.821c-3.753-4.245-7.559-8.459-11.419-12.633
	c-1.654-1.789-3.319-3.57-4.994-5.343l-0.443-0.467c2.742-5.102,5.495-10.249,8.246-15.44c0.731-1.38,1.462-2.763,2.193-4.149
	c4.383-8.317,8.754-16.745,13.059-25.279c0.719-1.422,1.434-2.848,2.148-4.276c0.357-0.714,0.713-1.429,1.069-2.144
	c0.712-1.431,1.421-2.866,2.128-4.303c0.708-1.437,1.412-2.877,2.115-4.32c0.702-1.443,1.401-2.889,2.098-4.338
	c0.697-1.449,1.391-2.901,2.081-4.355c0.691-1.455,1.379-2.912,2.063-4.372c0.342-0.73,0.684-1.461,1.024-2.192
	c0.898-1.931,1.791-3.869,2.677-5.81c1.921,7.055,3.822,14.114,5.7,21.18C1488.176,1336.72,1501.482,1391.912,1513.849,1447.315z
	 M1334.937,1057.058c-3.237-2.597-6.51-5.151-9.822-7.656c-2.274-1.721-4.566-3.418-6.877-5.091
	c-0.577-0.418-1.156-0.835-1.736-1.25c-1.16-0.831-2.324-1.654-3.493-2.472c-0.585-0.409-1.17-0.816-1.757-1.221
	c-1.174-0.811-2.352-1.617-3.535-2.414c-0.591-0.399-1.185-0.797-1.778-1.192c-4.287-2.855-8.636-5.621-13.049-8.289
	c0.331-3.152,0.633-6.307,0.903-9.466l0.031-0.362c1.369-16.165,1.911-32.422,1.338-48.672c16.32,4.49,32.765,8.579,49.274,12.341
	C1339.237,1006.216,1336.118,1031.628,1334.937,1057.058z M1263.009,1173.692c26.697,5.869,53.831,9.838,81.164,12.369
	c6.164,34.693,14.952,68.99,25.515,102.795c-1.832-1.436-3.674-2.858-5.531-4.264c-1.302-0.987-2.61-1.966-3.924-2.938
	c-1.315-0.971-2.636-1.935-3.962-2.891c-0.664-0.478-1.328-0.953-1.994-1.428c-1.333-0.947-2.672-1.887-4.018-2.819
	c-0.673-0.465-1.346-0.929-2.022-1.39c-3.38-2.307-6.798-4.562-10.257-6.761c-0.692-0.44-1.386-0.877-2.081-1.312
	c-1.39-0.871-2.787-1.732-4.191-2.584c-2.105-1.278-4.225-2.535-6.361-3.771c-1.423-0.824-2.854-1.637-4.292-2.442
	c-0.88-0.493-1.763-0.982-2.647-1.47l-0.706-0.389c-0.72-0.396-1.442-0.791-2.165-1.184l-0.525-0.286l-0.169-0.093
	c-4.736-6.225-9.495-12.431-14.276-18.622l0.335-0.139l-0.001,0h0.001l-0.738-0.383c-13.036-16.873-26.24-33.615-39.626-50.211
	C1261.352,1180.241,1262.177,1176.978,1263.009,1173.692z M1058.359,960.506c0.661-6.934,1.36-13.972,2.07-21.103
	c0.076-0.758,0.151-1.518,0.227-2.279c0.201-2.013,0.402-4.033,0.603-6.059l0.038-0.377c0.679-6.845,1.359-13.768,2.017-20.756
	c0.073-0.773,0.145-1.546,0.218-2.32c0.73-7.842,1.429-15.765,2.065-23.752c0.058-0.726,0.115-1.453,0.172-2.18
	c0.17-2.182,0.336-4.368,0.495-6.559c0.053-0.73,0.106-1.461,0.158-2.192c0.241-3.391,0.468-6.793,0.678-10.202
	c13.604,10.352,27.73,19.99,42.234,28.867c5.329,3.261,10.707,6.428,16.131,9.506c2.68,19.895,6.776,39.601,12.128,58.834
	c1.463,5.256,3.013,10.482,4.646,15.677c-22.934-2.7-45.904-2.874-68.402,0.059C1068.704,970.588,1063.543,965.535,1058.359,960.506
	z M1542.837,1585.329c-24.606-38.953-49.565-77.688-75.025-116.092c16.481,1.493,32.993,2.64,49.491,3.517l0.462,0.025
	c0.574,0.03,1.146,0.061,1.719,0.091c7.441,34.139,14.545,68.35,21.391,102.61
	C1541.533,1578.763,1542.186,1582.046,1542.837,1585.329z"/>
<path style="fill:#7C6919;" d="M1367.89,602.293c0.153-2.331,1.348-7.417,4.639-7.224c3.274,0.193,3.919,5.284,3.759,7.718
	c-5.321,81.285-19.38,161.921-40.982,240.441c0.379,0.826,0.762,1.651,1.141,2.478c38.165-75.929,87.03-164.379,92.641-259.615
	c5.704-96.801-16.778-199.371-89.863-263.101c-57.892,71.948-80.19,167.964-75.552,260.195
	c3.655,72.716,22.815,143.597,48.739,211.869c5.84,11.889,11.566,23.833,17.176,35.831
	C1349.638,756.123,1362.832,679.556,1367.89,602.293z"/>
<path style="fill:#7C6919;" d="M1514.808,1022.149c22.115-37.637,40.769-78.001,49.919-121.355
	c18.984-89.949,12.358-189.277-47.183-259.321c-50.29,46.296-82.303,109.404-98.039,176.314c1.468-1.807,2.955-3.599,4.463-5.377
	C1482.341,866.041,1508.986,942.74,1514.808,1022.149z"/>
<path style="fill:#7C6919;" d="M1617.729,1145.142c0.93-2.774,3.515-4.552,5.903-2.342c2.565,2.372,1.876,7.414,0.905,10.309
	c-24.96,74.464-62.536,144.477-111.026,206.245c69.13-59.039,152.158-126.145,196.622-216.995
	c46.326-94.656,66.816-206.92,20.279-301.473c-88.223,47.846-150.856,134.754-184.899,229.166
	c-31.392,87.062-40.469,180.504-40.728,273.219c0.596,2.41,1.19,4.819,1.781,7.23
	C1555.211,1289.029,1592.811,1219.484,1617.729,1145.142z"/>
<path style="fill:#7C6919;" d="M1291.198,928.22c2.217,13.541,3.481,27.144,3.962,40.752c16.321,4.489,32.765,8.579,49.274,12.341
	c3.487-16.711,7.909-33.192,13.308-49.296c-1.219-2.972-2.446-5.942-3.678-8.909c-36.481-64.311-79.513-130.885-140.679-178.189
	c-9.31-7.2-18.899-14.126-28.733-20.718C1245.321,772.209,1278.391,850.018,1291.198,928.22z"/>
<path style="fill:#7C6919;" d="M1517.79,1465.115c-28.565-19.951-58.374-38.059-89.215-54.182
	c13.221,19.339,26.293,38.778,39.237,58.303c17.208,1.559,34.449,2.743,51.673,3.634
	C1518.922,1470.285,1518.357,1467.699,1517.79,1465.115z"/>
<path style="fill:#7C6919;" d="M1321.054,1256.257c-2.061-1.154-4.132-2.294-6.213-3.422c21.898,28.782,43.323,57.926,64.336,87.356
	c5.679,7.955,11.327,15.931,16.948,23.925c-9.577-24.781-18.508-49.882-26.438-75.26
	C1354.359,1276.84,1338.194,1265.847,1321.054,1256.257z"/>
<path style="fill:#7C6919;" d="M1411.202,1370.913c-1.109,3.307-2.243,6.606-3.402,9.898c2.74,3.939,5.475,7.882,8.203,11.83
	c34.148,16.965,67.099,36.341,98.572,57.941c-0.242-1.088-0.483-2.177-0.726-3.266c-26.403-34.729-54.721-71.71-86.854-105.663
	C1421.661,1351.579,1416.365,1361.334,1411.202,1370.913z"/>
<path style="fill:#7C6919;" d="M1073.836,975.669c44.818,44.365,87.713,90.679,128.884,138.441
	c4.845,5.62,9.663,11.263,14.459,16.922c-31.073-48.855-57.663-100.447-74.942-155.422
	C1119.303,972.91,1096.334,972.736,1073.836,975.669z"/>
<path style="fill:#7C6919;" d="M1334.544,1092.958c-0.289-11.936-0.163-23.92,0.394-35.9c-13.364-10.72-27.347-20.698-42.05-29.587
	c-5.343,50.877-18.335,100.646-29.88,146.221c26.697,5.869,53.831,9.838,81.164,12.369
	C1338.709,1155.315,1335.304,1124.259,1334.544,1092.958z"/>
<path style="fill:#7C6919;" d="M1151.937,1077.049c-7.898-8.765-15.857-17.474-23.88-26.125
	c-70.972-31.712-145.203-56.014-221.419-71.433c-4.412-0.892-3.356-12.018,0.659-11.206
	c69.324,14.024,137.078,35.338,202.208,62.863c-0.666-0.701-1.331-1.405-1.998-2.106c-16.33-17.164-32.923-34.077-49.786-50.715
	c-4.1,0.822-8.179,1.754-12.236,2.799c-42.124-29.929-87.886-56.148-138.226-71.058c-101.064-29.935-215.192-31.458-300.698,30.176
	c61.87,79.045,158.007,126.353,256.785,144.213c70.724,12.788,143.002,11.667,214.605,3.424
	c36.977,30.233,80.295,53.386,125.477,69.083c7.918,2.751,15.893,5.29,23.92,7.634c-20.125-24.404-40.658-48.471-61.642-72.147
	C1161.138,1087.299,1156.547,1082.166,1151.937,1077.049z"/>
<path style="fill:#7C6919;" d="M1148.451,523.291c6.73,9.115,13.374,18.292,19.913,27.545
	c42.611,60.295,81.029,123.474,115.667,188.662c-25.626-108.565-52.594-236.275-126.632-335.492
	c-77.71-104.139-189.287-189.862-319.204-192.097c2.766,123.713,62.79,241.37,147.153,331.898
	c80.256,86.122,181.34,150.023,286.345,203.559c-40.228-76.154-85.621-149.583-136.793-218.886
	C1132.233,524.868,1146.149,520.173,1148.451,523.291z"/>
<path style="fill:#52190D;" d="M1365.265,911.434c-9.255-22.062-18.853-43.979-28.818-65.728c-0.379-0.827-0.761-1.651-1.141-2.478
	c21.602-78.52,35.661-159.157,40.982-240.441c0.16-2.433-0.485-7.525-3.759-7.718c-3.291-0.193-4.486,4.893-4.639,7.224
	c-5.058,77.264-18.252,153.831-38.303,228.591c-5.61-11.998-11.336-23.942-17.176-35.831c-1.774-3.611-3.555-7.219-5.35-10.82
	c-7.484-15.009-15.16-29.924-23.03-44.736c-34.637-65.188-73.055-128.367-115.667-188.662c-6.539-9.253-13.184-18.43-19.913-27.545
	c-2.302-3.118-16.218,1.577-13.552,5.189c51.172,69.304,96.565,142.733,136.793,218.886c2.39,4.525,4.765,9.058,7.119,13.603
	c27.418,52.927,52.398,107.091,75.252,162.139c1.232,2.967,2.459,5.936,3.678,8.909
	C1360.067,925.082,1362.574,918.217,1365.265,911.434z"/>
<path style="fill:#7C6919;" d="M991.722,732.808c-1.362-3.086-1.433-7.727,0.622-10.565c1.729-2.39,4.619-2.641,5.938,0.349
	c32.872,74.49,52.595,154.417,57.78,235.685c0.766,0.742,1.531,1.486,2.296,2.229c2.946-30.905,6.646-63.904,8.74-97.78
	c13.604,10.352,27.731,19.991,42.235,28.867c5.329,3.261,10.707,6.428,16.131,9.506c-9.019-66.969-1.969-136.081,27.389-196.503
	c-34.654-19.532-71.623-34.463-109.521-42.281c-31.515-84.077-87.431-160.746-171.467-191.117
	c-27.928,88.022-13.965,185.599,23.738,269.9c31.026,69.369,77.07,130.763,128.555,186.956c7.61,7.057,15.164,14.175,22.667,21.345
	C1040.665,874.702,1022,801.42,991.722,732.808z"/>
<path style="fill:#7C6919;" d="M1212.737,1414.707c-4.362-0.318-3.639-11.52,0.659-11.206
	c75.815,5.535,150.577,22.086,221.746,48.666c1.902,0.71,3.802,1.43,5.699,2.155c-12.651-18.902-25.43-37.718-38.355-56.433
	c-32.684-15.614-66.42-29.036-100.97-40.101c-3.786-1.213-2.376-12.208,2.31-10.708c29.499,9.447,58.403,20.613,86.567,33.394
	c-15.62-22.379-31.457-44.606-47.544-66.655c-18.21-24.958-36.741-49.685-55.624-74.14c-69.376,28-141.735,50.367-215.999,56.646
	c14.262,16.701,30.013,32.197,46.921,46.439c-80.987,0.774-160.697,22.985-218.404,79.249
	c72.862,69.045,174.929,101.641,275.261,104.723c95.674,2.939,190.433-18.927,281.435-48.97c-1.706-2.578-3.413-5.156-5.124-7.731
	C1375.17,1439.468,1294.59,1420.684,1212.737,1414.707z"/>
<path style="fill:#52190D;" d="M1624.537,1153.11c0.971-2.896,1.66-7.937-0.905-10.309c-2.388-2.21-4.973-0.432-5.903,2.342
	c-24.918,74.342-62.519,143.887-111.163,205.359c-0.591-2.411-1.185-4.82-1.781-7.23c-2.502-10.119-5.04-20.229-7.62-30.328
	c-6.321-24.737-12.889-49.413-19.727-74.014c-3.072,7.314-6.261,14.562-9.54,21.744c1.921,7.055,3.822,14.114,5.699,21.18
	c14.579,54.866,27.885,110.058,40.253,165.462c0.243,1.089,0.484,2.178,0.726,3.266c-31.473-21.6-64.424-40.975-98.572-57.941
	c-2.729-3.948-5.463-7.892-8.203-11.83c1.159-3.292,2.293-6.591,3.402-9.898c24.755-73.858,36.986-151.609,35.985-229.535
	c-0.032-2.442-0.356-7.518-3.76-7.718c-3.159-0.186-4.669,4.888-4.639,7.224c1.007,78.468-11.468,156.683-37.379,230.768
	c-1.759-2.514-3.52-5.025-5.285-7.535c-5.621-7.995-11.269-15.971-16.948-23.925c-21.013-29.431-42.438-58.574-64.336-87.356
	c-4.735-6.224-9.494-12.432-14.275-18.622l-0.402-0.521c-13.036-16.873-26.24-33.616-39.627-50.212l-0.46-0.572
	c0.175-0.774,0.274-1.502,0.31-2.066c5.451-83.324-2.32-167.29-23.293-248.126c-0.717-2.765-2.903-4.971-5.588-3.018
	c-2.702,1.966-2.845,7.291-2.108,10.133c19.762,76.168,27.436,155.083,23.01,233.621c-11.604-14.254-23.344-28.398-35.229-42.421
	c-4.796-5.66-9.614-11.302-14.459-16.922c-41.172-47.762-84.066-94.075-128.884-138.441c-5.133-5.081-10.294-10.134-15.478-15.163
	c-0.766-0.743-1.53-1.487-2.296-2.229c-5.184-81.268-24.908-161.195-57.78-235.685c-1.319-2.99-4.209-2.74-5.938-0.349
	c-2.055,2.838-1.984,7.479-0.622,10.565c30.279,68.613,48.943,141.894,55.102,216.592c-7.503-7.17-15.056-14.288-22.667-21.345
	c-4.152-3.849-8.319-7.683-12.504-11.498c-12.681-11.563-25.511-22.964-38.493-34.191c-55.979-48.413-114.772-93.59-176.466-134.487
	c-9.526-6.316-19.124-12.522-28.782-18.636c-2.613-1.654-6.743-0.567-9.403,0.472c-0.876,0.343-6.598,3.166-4.147,4.717
	c73.865,46.761,143.745,99.602,209.679,156.973c2.822,2.455,5.639,4.915,8.445,7.386c29.173,25.686,57.567,52.241,85.233,79.538
	c16.863,16.638,33.456,33.551,49.786,50.715c0.667,0.701,1.332,1.404,1.998,2.106c-65.13-27.525-132.884-48.839-202.208-62.863
	c-4.015-0.812-5.071,10.314-0.659,11.206c76.215,15.419,150.447,39.72,221.419,71.433c8.023,8.65,15.983,17.36,23.88,26.125
	c4.61,5.117,9.201,10.25,13.769,15.403c20.983,23.677,41.516,47.744,61.642,72.147c12.068,14.634,23.989,29.389,35.771,44.256
	c-6.598-1.697-13.214-3.309-19.851-4.832c-67.671-15.528-137.284-21.966-206.716-18.872c-4.44,0.198-4.848,11.392-0.659,11.206
	c80.376-3.581,160.995,5.612,238.563,26.893c4.276,5.463,8.532,10.939,12.771,16.429c18.883,24.455,37.414,49.182,55.624,74.14
	c16.087,22.049,31.924,44.276,47.544,66.655c-28.164-12.781-57.069-23.946-86.567-33.394c-4.686-1.501-6.096,9.495-2.31,10.708
	c34.55,11.065,68.286,24.487,100.97,40.101c12.925,18.715,25.704,37.531,38.355,56.433c-1.897-0.725-3.797-1.444-5.699-2.155
	c-71.169-26.58-145.931-43.13-221.746-48.666c-4.298-0.314-5.021,10.887-0.659,11.206c81.853,5.977,162.433,24.761,238.578,55.328
	c1.711,2.576,3.418,5.153,5.124,7.731c18.734,28.323,37.2,56.824,55.455,85.456c12.96,20.325,25.811,40.716,38.582,61.159
	c15.823,81.991,30.398,164.22,44.804,246.472c2.158,12.323,4.312,24.647,6.467,36.971c0.642,3.674,15.199,0.372,14.457-3.874
	c-14.248-81.501-28.501-163.007-43.813-244.315c32.685,52.826,64.902,105.943,97.038,159.105
	c6.519,10.785,13.035,21.573,19.552,32.36c2.421,4.008,16.048-1.242,14.457-3.873c-45.788-75.803-91.585-151.61-138.504-226.721
	c-0.862-4.465-1.726-8.929-2.596-13.393c-15.85-81.387-32.999-162.542-52.491-243.138c1.228-1.536,2.45-3.075,3.664-4.621
	C1562.001,1297.587,1599.577,1227.573,1624.537,1153.11z M1542.837,1585.329c-24.605-38.953-49.566-77.689-75.025-116.092
	c-12.944-19.525-26.016-38.965-39.237-58.303c30.842,16.123,60.65,34.231,89.215,54.182c0.567,2.584,1.132,5.17,1.695,7.755
	c7.44,34.139,14.544,68.351,21.391,102.61C1541.532,1578.763,1542.186,1582.046,1542.837,1585.329z"/>
<path style="fill:#5E4F16;" d="M1352.411,608.895c-8.851-5.67-16.476-12.867-24.194-19.949c-0.917,18.032-1.666,36.118-6.773,53.557
	c-4.949,16.9-13.213,33.753-26.436,45.674c-4.137,3.729-8.675,7.04-13.471,9.946c8.264,32.863,18.865,65.241,30.936,97.053
	c5.819,11.848,11.525,23.751,17.115,35.708c8.726-32.532,16.151-65.406,22.175-98.531c4.182-40.811,6.269-81.782,6.259-122.693
	C1356.283,610.321,1354.242,610.068,1352.411,608.895z"/>
<path style="fill:#5E4F16;" d="M1402.026,418.826c5.308,19.696,9.288,39.77,11.479,60.057c2.073,19.198,2.731,38.842,0.21,58.031
	c-2.124,16.161-6.686,32.699-16.78,45.79c-1.825,2.367-5.69,2.965-8.024,0.97c-1.08-0.923-2.143-1.863-3.195-2.816
	c0.146,9.204,0.015,18.508-0.407,27.926c-3.59,80.162-20.325,159.895-49.663,235.181c0.266,0.58,0.535,1.16,0.801,1.74
	c9.07-18.046,18.745-36.799,28.3-56.182c0.319-0.648,0.638-1.296,0.957-1.945c1.595-3.245,3.186-6.508,4.769-9.788
	c0.317-0.656,0.633-1.313,0.949-1.97c2.845-5.915,5.663-11.887,8.435-17.912c2.157-4.686,4.286-9.404,6.377-14.154
	c0.597-1.357,1.192-2.716,1.783-4.078c1.774-4.086,3.519-8.195,5.229-12.326c0.57-1.377,1.136-2.756,1.698-4.138
	c0.281-0.691,0.561-1.383,0.84-2.074c0.558-1.385,1.111-2.771,1.66-4.16c0.549-1.389,1.094-2.78,1.634-4.175
	c0.54-1.394,1.075-2.79,1.606-4.189c0.265-0.7,0.53-1.399,0.792-2.1c0.526-1.401,1.047-2.804,1.562-4.21
	c1.032-2.811,2.041-5.632,3.03-8.462c0.494-1.415,0.982-2.832,1.465-4.251c0.241-0.71,0.481-1.42,0.719-2.131
	c0.477-1.421,0.947-2.845,1.412-4.272c0.232-0.713,0.463-1.426,0.692-2.14c1.375-4.285,2.694-8.59,3.951-12.914
	c0.419-1.441,0.831-2.885,1.235-4.331c0.405-1.445,0.803-2.893,1.192-4.343c0.196-0.725,0.389-1.45,0.58-2.176
	c0.383-1.451,0.759-2.906,1.126-4.362c0.184-0.728,0.366-1.456,0.546-2.185c0.36-1.458,0.712-2.918,1.057-4.38
	c0.172-0.731,0.342-1.463,0.51-2.195c1.008-4.393,1.945-8.803,2.801-13.231c0.429-2.214,0.838-4.432,1.226-6.655
	c2.201-12.595,3.747-25.327,4.505-38.184l0.021-0.384c0.044-0.759,0.087-1.519,0.127-2.279l0.053-1.026
	c0.032-0.627,0.063-1.254,0.093-1.881l0.042-0.9c0.04-0.88,0.079-1.76,0.114-2.64l0.024-0.641c0.029-0.74,0.056-1.48,0.082-2.221
	l0.026-0.801c0.025-0.728,0.046-1.457,0.066-2.187l0.019-0.646c0.025-0.944,0.048-1.887,0.068-2.832l0.005-0.294
	c0.018-0.879,0.034-1.758,0.046-2.637l0.007-0.447c0.031-2.267,0.047-4.535,0.046-6.804c0-0.756-0.003-1.513-0.006-2.269V555.2
	c-0.005-0.835-0.011-1.669-0.021-2.505l-0.003-0.315c-0.009-0.748-0.019-1.496-0.031-2.244l-0.005-0.3
	c-0.917-53.983-11.332-108.03-35.015-154.594C1397.553,403.016,1399.895,410.92,1402.026,418.826z"/>
<path style="fill:#988119;" d="M1385.717,580.859c-1.116-70.333-18.622-134.763-49.719-198.44
	c14.665,74.572,22.004,150.8,22.024,227.24c0.01,40.911-2.076,81.882-6.259,122.693c7.818-42.998,13.272-86.418,16.129-130.06
	c0.153-2.331,1.348-7.417,4.638-7.224c3.274,0.193,3.919,5.284,3.76,7.718c-5.322,81.285-19.38,161.921-40.982,240.441l0.339,0.738
	c29.339-75.285,46.074-155.019,49.663-235.181C1385.731,599.367,1385.862,590.063,1385.717,580.859z"/>
<path style="fill:#5E4F16;" d="M1490.972,912.3c0.953,2.436,1.876,4.887,2.77,7.35c0.353-2.257,0.698-4.515,1.037-6.774
	C1493.531,913.15,1492.201,912.949,1490.972,912.3z"/>
<path style="fill:#988119;" d="M1524.802,889.778c8.863-66.096,1.527-128.966-18.656-193.045
	c3.244,71.978-0.615,144.477-11.366,216.143c-0.339,2.258-0.685,4.516-1.037,6.774c5.871,16.174,10.482,32.927,13.95,50.034
	c4.973-17.761,9.244-35.706,12.794-53.783C1522.209,907.131,1523.642,898.428,1524.802,889.778z"/>
<path style="fill:#5E4F16;" d="M1721.391,1117.784c0.305-0.714,0.608-1.428,0.91-2.143l0.182-0.43
	c23.98-56.993,37.824-118.848,33.384-178.552c-0.55,8.927-1.517,17.834-2.698,26.655c-2.94,21.973-7.372,43.767-13.685,65.026
	c-5.974,20.117-13.555,40.087-24.134,58.268c-8.908,15.311-20.42,29.978-36.031,38.868c-2.823,1.608-6.949,0.586-8.451-2.393
	c-0.695-1.378-1.367-2.767-2.022-4.163c-3.715,9.289-7.749,18.562-12.123,27.827c-33.379,70.708-77.209,136.637-129.881,195.047
	c-4.347,5.924-8.791,11.78-13.331,17.563c6.411-5.475,12.943-11.021,19.552-16.648c0.533-0.454,1.068-0.909,1.602-1.365
	c2.057-1.753,4.121-3.512,6.191-5.281c0.585-0.499,1.171-1,1.756-1.501c3.009-2.574,6.03-5.166,9.058-7.776
	c1.098-0.946,2.197-1.895,3.297-2.847c3.543-3.065,7.095-6.157,10.65-9.277c0.592-0.52,1.185-1.041,1.778-1.563
	c0.661-0.582,1.323-1.165,1.984-1.749c1.05-0.927,2.099-1.857,3.149-2.788l0.397-0.353c1.651-1.467,3.301-2.94,4.951-4.42
	c0.654-0.586,1.308-1.174,1.961-1.763c1.776-1.6,3.55-3.207,5.322-4.821c2.953-2.692,5.902-5.406,8.84-8.142
	c1.175-1.095,2.349-2.193,3.521-3.296c0.617-0.58,1.233-1.161,1.849-1.743c1.725-1.63,3.445-3.268,5.161-4.915
	c0.868-0.834,1.735-1.67,2.601-2.508c1.456-1.409,2.908-2.823,4.356-4.244c0.577-0.566,1.154-1.134,1.73-1.703
	c1.152-1.137,2.301-2.279,3.447-3.424c2.292-2.291,4.573-4.599,6.84-6.923c1.133-1.162,2.263-2.329,3.39-3.5
	s2.249-2.346,3.368-3.526c1.118-1.179,2.234-2.364,3.344-3.552c1.111-1.188,2.218-2.382,3.32-3.579
	c0.551-0.598,1.101-1.198,1.65-1.8c1.098-1.202,2.191-2.409,3.28-3.62c0.544-0.606,1.088-1.212,1.629-1.82
	c2.71-3.04,5.391-6.109,8.037-9.208c0.529-0.62,1.058-1.241,1.584-1.863c3.686-4.356,7.306-8.772,10.849-13.25
	c0.506-0.64,1.011-1.281,1.514-1.923c2.514-3.212,4.99-6.455,7.421-9.732c0.973-1.311,1.939-2.627,2.897-3.948
	c0.959-1.321,1.91-2.648,2.854-3.981c0.944-1.332,1.88-2.67,2.809-4.013c2.967-4.291,5.855-8.639,8.66-13.044
	c0.538-0.845,1.074-1.693,1.605-2.542c6.675-10.664,12.85-21.668,18.418-33.045l0.07-0.145c0.413-0.844,0.823-1.69,1.231-2.537
	l0.397-0.826c0.318-0.661,0.634-1.323,0.949-1.986l0.403-0.847c0.426-0.9,0.85-1.801,1.271-2.704l0.075-0.162
	c0.4-0.858,0.797-1.717,1.192-2.577l0.342-0.746c0.35-0.766,0.7-1.534,1.047-2.302l0.219-0.485c0.876-1.944,1.74-3.895,2.593-5.852
	l0.132-0.304c0.37-0.85,0.736-1.701,1.101-2.552L1721.391,1117.784z"/>
<path style="fill:#5E4F16;" d="M1623.693,1133.055c-6.495-9.397-11.12-19.812-15.888-30.149
	c-8.483,17.694-16.823,35.512-29.257,50.853c-12.051,14.868-27.406,28.296-45.665,34.7c-5.711,2.003-11.65,3.419-17.678,4.321
	c-7.498,49.629-10.267,100.173-10.416,150.509c0.595,2.404,1.188,4.808,1.778,7.213c48.644-61.472,86.244-131.017,111.163-205.359
	c0.93-2.774,3.514-4.552,5.902-2.342c0.735,0.68,1.202,1.579,1.472,2.584c1.31-3.065,2.606-6.135,3.892-9.209
	C1626.976,1136.109,1625.037,1134.999,1623.693,1133.055z"/>
<path style="fill:#988119;" d="M1702.244,899.115c-16.58,80.915-41.201,160.417-73.248,237.06c-1.286,3.074-2.582,6.144-3.892,9.209
	c0.674,2.502,0.126,5.66-0.566,7.727c-22.623,67.492-55.612,131.328-97.698,188.683c52.672-58.411,96.503-124.339,129.881-195.047
	c4.374-9.265,8.408-18.538,12.123-27.827C1697.231,1047.937,1706.708,975.999,1702.244,899.115z"/>
<path style="fill:#504217;" d="M1044.673,665.94c0.667,0.23,1.335,0.459,2,0.691c20.932,7.315,41.387,16.053,60.939,26.528
	c13.57,7.27,26.886,15.372,39.206,24.709c1.895-4.464,3.904-8.886,6.031-13.264c-34.648-19.52-71.613-34.439-109.503-42.253
	l0.372,1.001l0.124,0.333C1044.121,664.437,1044.398,665.188,1044.673,665.94z"/>
<path style="fill:#504217;" d="M1271.812,852.475c29.729,27.683,57.405,57.653,82.695,89.615c1.037-3.373,2.115-6.731,3.236-10.073
	c-1.219-2.972-2.447-5.942-3.679-8.91c-1.515-2.671-3.041-5.345-4.579-8.021c-0.394-0.687-0.79-1.373-1.186-2.06
	c-1.584-2.747-3.182-5.496-4.793-8.246c-0.403-0.688-0.806-1.375-1.211-2.063c-0.809-1.375-1.622-2.749-2.438-4.124
	c-1.224-2.062-2.457-4.123-3.698-6.183c-2.897-4.807-5.839-9.609-8.834-14.394c-0.427-0.684-0.857-1.367-1.286-2.05
	c-17.195-27.32-36.092-54.098-57.585-78.669c-1.075-1.228-2.156-2.452-3.244-3.669c-2.176-2.435-4.377-4.847-6.607-7.234
	c-1.672-1.791-3.36-3.567-5.063-5.329c-3.974-4.112-8.033-8.144-12.183-12.088c-1.186-1.127-2.379-2.247-3.58-3.359
	c-1.2-1.112-2.409-2.217-3.624-3.315c-1.216-1.097-2.439-2.187-3.67-3.269c-1.231-1.082-2.47-2.156-3.717-3.222
	c-1.246-1.066-2.5-2.124-3.763-3.174c-2.524-2.1-5.081-4.167-7.671-6.199c-0.647-0.508-1.296-1.014-1.948-1.518
	c-0.802-0.62-1.607-1.238-2.414-1.854l-0.63-0.48c-0.627-0.477-1.255-0.954-1.883-1.429l-0.598-0.451
	c-0.818-0.616-1.637-1.229-2.459-1.84l-0.158-0.117c-0.768-0.571-1.538-1.139-2.309-1.706l-0.587-0.43
	c-0.71-0.521-1.421-1.039-2.134-1.556l-0.365-0.265c-1.728-1.25-3.464-2.491-5.208-3.721l-0.305-0.214
	c-3.188-2.245-6.406-4.453-9.648-6.626C1225.45,756.497,1253.749,802.22,1271.812,852.475z"/>
<path style="fill:#504217;" d="M1285.026,897.25c0.234,0.994,0.466,1.989,0.694,2.985l0.178,0.789
	c0.191,0.841,0.379,1.682,0.565,2.524l0.24,1.098c0.234,1.07,0.465,2.14,0.69,3.211l0.092,0.438
	c0.169,0.809,0.336,1.619,0.501,2.428l0.061,0.298c0.179,0.878,0.354,1.758,0.526,2.636l0.11,0.566
	c0.133,0.682,0.265,1.365,0.395,2.047l0.15,0.788c0.138,0.734,0.275,1.468,0.411,2.203l0.071,0.386
	c0.153,0.838,0.304,1.676,0.453,2.514l0.154,0.879c0.101,0.572,0.2,1.145,0.298,1.718l0.165,0.965
	c0.12,0.71,0.239,1.418,0.355,2.128l0.062,0.369c2.216,13.531,3.479,27.125,3.961,40.723c16.322,4.496,32.767,8.594,49.277,12.362
	c2.023-9.693,4.359-19.308,7.02-28.818c-21.812-20.621-44.317-40.471-67.457-59.507l0.239,0.989
	c0.158,0.646,0.314,1.291,0.468,1.937L1285.026,897.25z"/>
<path style="fill:#988119;" d="M1060.914,723.38c0.572,2.953,1.107,5.912,1.607,8.876c0.125,0.741,0.249,1.483,0.369,2.224
	c0.362,2.225,0.706,4.452,1.03,6.682c0.109,0.743,0.214,1.486,0.319,2.23c0.173,1.237,0.339,2.475,0.501,3.714
	c21.251,11.2,42.205,23.008,62.829,35.403c1.836-9.957,4.125-19.815,6.89-29.539c-23.78-12.021-48.264-21.861-73.584-29.784
	L1060.914,723.38z"/>
<path style="fill:#988119;" d="M1354.507,942.09c-25.29-31.962-52.965-61.932-82.695-89.615
	c4.759,13.242,8.807,26.798,12.186,40.505c23.141,19.036,45.646,38.886,67.457,59.507
	C1352.429,949.007,1353.447,945.541,1354.507,942.09z"/>
<path style="fill:#504217;" d="M1485.187,1410.051c-1.46-1.86-2.927-3.723-4.402-5.585c-3.441-4.345-6.921-8.692-10.445-13.031
	c-1.007-1.24-2.018-2.479-3.031-3.717c-2.028-2.476-4.07-4.949-6.128-7.417c-3.086-3.702-6.206-7.392-9.362-11.065
	c-3.156-3.672-6.348-7.327-9.578-10.958c-1.077-1.21-2.158-2.418-3.243-3.623c-1.628-1.807-3.266-3.608-4.913-5.402
	c-2.342-2.549-4.705-5.084-7.088-7.602c-4.632,8.618-9.234,17.107-13.746,25.464c31.225,22.756,60.856,47.79,88.576,74.891
	c4.276,2.818,8.526,5.675,12.75,8.574c-0.243-1.088-0.484-2.177-0.727-3.265c-8.831-11.615-17.875-23.483-27.205-35.404
	C1486.16,1411.292,1485.674,1410.671,1485.187,1410.051z"/>
<path style="fill:#504217;" d="M1433.447,1445.567c-4.032-0.565-8.057-1.168-12.076-1.806c2.686,1.631,5.36,3.26,8.02,4.886
	c1.924,1.175,3.842,2.349,5.752,3.519c1.902,0.71,3.802,1.43,5.699,2.155c-2.016-3.011-4.033-6.02-6.055-9.027
	C1434.408,1445.531,1433.96,1445.639,1433.447,1445.567z"/>
<path style="fill:#504217;" d="M1517.762,1472.779c0.574,0.031,1.149,0.059,1.724,0.089c-0.563-2.585-1.128-5.169-1.695-7.752
	c-28.565-19.951-58.374-38.059-89.215-54.181c13.217,19.333,26.286,38.767,39.227,58.287c16.486,1.499,33.002,2.654,49.505,3.534
	L1517.762,1472.779z"/>
<path style="fill:#504217;" d="M1369.688,1288.857c-1.189-0.932-2.382-1.858-3.582-2.778c-1.296-0.994-2.598-1.981-3.907-2.96
	c-1.308-0.979-2.622-1.951-3.943-2.915c-0.66-0.482-1.322-0.961-1.985-1.439c-1.327-0.955-2.659-1.904-3.999-2.843
	c-2.008-1.409-4.032-2.8-6.068-4.172c-1.358-0.914-2.723-1.82-4.094-2.717c-6.854-4.486-13.869-8.754-21.055-12.774
	c-0.88-0.492-1.764-0.982-2.647-1.47l-0.72-0.397c-0.683-0.376-1.367-0.75-2.053-1.123l-0.675-0.368l-0.117-0.063
	c21.897,28.782,43.322,57.925,64.334,87.355c1.526,2.136,3.047,4.275,4.568,6.414c2.565,1.699,5.12,3.415,7.666,5.143
	C1383.611,1330.995,1376.301,1310.022,1369.688,1288.857z"/>
<path style="fill:#504217;" d="M1307.013,1342.072c-9.742,5.97-20.397,10.017-30.983,14.21c17.205,9.444,34.54,18.751,49.178,32.013
	c1.547,1.402,3.075,2.842,4.576,4.318c2.104,1.028,4.203,2.066,6.295,3.113c1.451,0.726,2.899,1.456,4.343,2.191
	c1.445,0.734,2.887,1.473,4.326,2.216c2.878,1.485,5.743,2.985,8.597,4.5c4.28,2.271,8.533,4.573,12.759,6.899
	c1.408,0.775,2.814,1.554,4.216,2.334c2.104,1.17,4.201,2.347,6.291,3.528c2.787,1.575,5.561,3.158,8.323,4.747
	c1.381,0.795,2.759,1.591,4.134,2.389c0.688,0.399,1.375,0.799,2.06,1.198c1.372,0.799,2.74,1.599,4.106,2.401
	c2.049,1.202,4.09,2.407,6.125,3.613c0.791,0.469,1.581,0.938,2.37,1.407c8.565,1.609,17.162,3.051,25.782,4.318
	c-8.94-13.239-17.947-26.434-27.026-39.578c-32.684-15.615-66.42-29.036-100.97-40.101c-3.786-1.212-2.376-12.208,2.31-10.707
	c29.499,9.447,58.403,20.613,86.567,33.393c-0.508-0.729-1.018-1.457-1.527-2.185c-25.694-14.678-51.864-28.468-78.447-41.342
	C1310.243,1338.961,1309.028,1340.837,1307.013,1342.072z"/>
<path style="fill:#504217;" d="M1282.821,1241.446c-0.935,0.374-1.87,0.745-2.806,1.116c-0.453,0.18-0.908,0.359-1.361,0.538
	c-4.266,1.686-8.541,3.353-12.829,4.991c14.741,9.721,28.684,21.992,36.675,38.012c1.451,2.909,0.203,6.972-2.854,8.309
	c-1.414,0.619-2.839,1.213-4.269,1.791c9.072,4.22,18.111,8.759,27.123,13.635c10.037,5.432,19.959,11.081,29.759,16.94
	c-3.128-4.326-6.263-8.647-9.409-12.959c-18.21-24.958-36.741-49.685-55.624-74.14l-0.913,0.366
	C1285.15,1240.514,1283.986,1240.981,1282.821,1241.446z"/>
<path style="fill:#988119;" d="M1295.377,1296.203c-27.113-12.612-54.532-22.344-82.477-29.505
	c-14.07,4.485-28.241,8.606-42.505,12.286c47.674,16.521,94.455,35.894,140.025,57.963c26.583,12.874,52.753,26.664,78.447,41.342
	c-12.067-17.265-24.265-34.439-36.608-51.51c-9.8-5.859-19.722-11.509-29.759-16.94
	C1313.488,1304.962,1304.449,1300.423,1295.377,1296.203z"/>
<path style="fill:#988119;" d="M1394.153,1358.977c-0.353-0.924-0.704-1.848-1.055-2.773c-0.257-0.676-0.512-1.352-0.768-2.028
	c-0.306-0.809-0.614-1.616-0.918-2.426c-2.545-1.729-5.101-3.444-7.666-5.143c4.142,5.826,8.269,11.663,12.38,17.511l-0.1-0.261
	C1395.399,1362.231,1394.774,1360.604,1394.153,1358.977z"/>
<path style="fill:#988119;" d="M1411.203,1370.912c-1.109,3.308-2.244,6.607-3.402,9.898c2.741,3.939,5.476,7.883,8.203,11.831
	c29.566,14.688,58.234,31.184,85.823,49.366c-27.72-27.101-57.351-52.135-88.576-74.891
	C1412.566,1368.384,1411.883,1369.65,1411.203,1370.912z"/>
<path style="fill:#504217;" d="M1292.889,1027.471c-1.37,13.044-3.242,26.014-5.464,38.86l-0.208,1.192
	c16.088,7.926,31.88,16.475,47.332,25.622l-0.005-0.187c-0.29-11.936-0.163-23.92,0.393-35.9c-0.458-0.367-0.917-0.734-1.376-1.101
	C1320.615,1045.654,1307.087,1036.056,1292.889,1027.471z"/>
<path style="fill:#504217;" d="M1274.856,1126.176c0.461,0.353,0.92,0.709,1.377,1.07c10.856,8.591,20.869,19.172,27.276,31.573
	c5.785,1.612,11.586,3.169,17.404,4.667c1.926,0.496,0.819,7.795-0.439,7.47c-4.417-1.137-8.825-2.309-13.223-3.512
	c1.687,4.771,2.911,9.723,3.723,14.752c11.021,1.534,22.09,2.8,33.192,3.832c-4.057-22.84-6.977-45.852-8.522-69.007
	c-17.542-8.62-35.293-16.784-53.229-24.482C1280.056,1103.893,1277.499,1115.119,1274.856,1126.176z"/>
<path style="fill:#504217;" d="M1084.725,974.522c7.806,0.389,15.599,1.144,23.318,2.086c12.252,1.494,24.448,3.521,36.507,6.164
	c-0.785-2.374-1.555-4.753-2.305-7.14C1122.998,973.37,1103.724,972.886,1084.725,974.522z"/>
<path style="fill:#988119;" d="M1107.506,1029.042c-2.701-2.839-5.412-5.671-8.128-8.496c-0.782-0.016-1.563-0.03-2.346-0.042
	C1100.549,1023.348,1104.041,1026.196,1107.506,1029.042z"/>
<path style="fill:#988119;" d="M1160.939,1025.992c-13.977-2.244-28.06-3.784-42.289-4.661c6.473,6.784,12.906,13.606,19.298,20.466
	c11.665,3.225,23.283,6.641,34.849,10.246C1168.645,1043.444,1164.685,1034.761,1160.939,1025.992z"/>
<path style="fill:#988119;" d="M1287.061,1068.418c-1.102,6.258-2.285,12.487-3.532,18.678c-0.139,0.688-0.278,1.375-0.418,2.063
	c-0.23,1.128-0.462,2.255-0.696,3.381c17.936,7.698,35.688,15.862,53.229,24.482c-0.53-7.942-0.899-15.901-1.095-23.876
	c-15.452-9.147-31.244-17.696-47.332-25.622L1287.061,1068.418z"/>
<path style="fill:#5E4F16;" d="M957.572,237.952c9.481,5.633,18.704,11.712,27.713,17.977
	c22.441,15.605,43.847,32.744,63.605,51.646c18.697,17.887,36.327,37.452,50.306,59.297c11.772,18.397,21.371,39.286,22.326,61.415
	c0.173,4.003-3.273,7.951-7.386,7.921c-1.903-0.014-3.805-0.06-5.706-0.128c8.095,9.308,15.991,18.957,23.688,28.973
	c59.697,77.691,107.898,164.438,142.402,256.772c3.201,5.874,6.373,11.763,9.512,17.671c-0.2-0.847-0.4-1.693-0.599-2.541
	c-1.472-6.249-2.95-12.559-4.443-18.922c-0.213-0.909-0.427-1.819-0.64-2.73c-2.138-9.112-4.307-18.329-6.533-27.625
	c-0.223-0.929-0.446-1.86-0.67-2.791c-1.343-5.587-2.707-11.201-4.098-16.838c-0.464-1.878-0.93-3.76-1.4-5.644
	c-0.469-1.883-0.943-3.769-1.419-5.656c-1.905-7.55-3.864-15.133-5.891-22.734c-3.546-13.302-7.298-26.66-11.323-40.003
	c-2.588-8.578-5.289-17.149-8.123-25.695c-1.574-4.748-3.189-9.488-4.847-14.217c-0.332-0.946-0.665-1.891-1-2.836
	c-1.676-4.725-3.397-9.437-5.165-14.134c-0.354-0.939-0.709-1.879-1.067-2.817c-1.43-3.753-2.891-7.496-4.384-11.227
	c-0.374-0.933-0.749-1.865-1.126-2.796c-4.151-10.244-8.552-20.397-13.234-30.423c-0.426-0.911-0.854-1.822-1.284-2.731
	c-13.772-29.098-29.958-57.094-49.385-83.129c-0.57-0.763-1.142-1.526-1.716-2.287l-0.232-0.309
	c-1.118-1.483-2.243-2.962-3.375-4.437l-0.462-0.601c-0.465-0.606-0.932-1.21-1.401-1.814l-0.252-0.327
	c-0.535-0.69-1.073-1.379-1.612-2.067l-0.532-0.679c-0.39-0.498-0.781-0.995-1.173-1.491l-0.537-0.681
	c-0.503-0.636-1.008-1.271-1.513-1.905l-0.637-0.796c-0.361-0.451-0.723-0.902-1.086-1.354l-0.632-0.785
	c-0.474-0.588-0.95-1.175-1.427-1.762l-0.894-1.097l-0.686-0.838c-1.174-1.433-2.355-2.862-3.543-4.286l-0.148-0.177
	c-0.712-0.853-1.427-1.703-2.143-2.553l-0.485-0.573c-0.595-0.703-1.191-1.405-1.789-2.106l-0.38-0.445
	C1082.467,314.171,1023.786,265.975,957.572,237.952z"/>
<path style="fill:#5E4F16;" d="M1134.9,528.48c-0.515-0.697-0.41-1.435,0.109-2.15c-9.857-12.428-19.894-24.705-30.107-36.825
	c-1.21,2.179-3.521,3.68-6.41,4.059c-13.965,1.829-27.994,1.034-42.017,0.438c14.626,19.273,29.468,38.457,39.287,60.738
	c9.516,21.594,15.592,45.999,12.328,69.632c-1.021,7.393-2.814,14.703-5.222,21.822c52.484,37.828,108.976,70.555,166.712,100.092
	l0.566,0.289c0.514,0.263,1.03,0.524,1.544,0.786C1231.462,671.21,1186.07,597.783,1134.9,528.48z"/>
<path style="fill:#988119;" d="M1108.429,436.081c-61.853-71.124-135.409-122.05-222.244-160.473
	c79.398,63.773,152.718,135.568,218.718,213.897c10.213,12.12,20.25,24.397,30.107,36.825c2.168-2.984,11.584-5.555,13.442-3.039
	c6.73,9.114,13.374,18.292,19.913,27.545c38.749,54.831,74.03,112.048,106.155,170.99
	c-34.505-92.334-82.705-179.081-142.402-256.772C1124.42,455.038,1116.524,445.388,1108.429,436.081z"/>
<path style="fill:#BC9F22;" d="M885.475,323.824c-10.269-22.955-19.376-46.409-27.382-70.246c-1.064-3.168-2.832,1.567-3.073,2.508
	c-0.821,3.216-0.902,7.094,0.163,10.267c28.06,83.543,70.211,162.406,124.963,231.524c15.459,19.516,31.927,38.207,49.305,56.035
	c1.752,1.797,2.827-4.382,2.928-5.063c0.349-2.346,0.971-7.309-0.948-9.278C970.451,477.013,921.138,403.539,885.475,323.824z"/>
<path style="fill:#BC9F22;" d="M1473.178,719.229c-17.026,32.894-29.835,67.837-38.341,103.808c1.472,1.532,2.922,3.079,4.349,4.642
	c8.334-36.174,21.097-71.314,38.232-104.417C1479.09,720.036,1475.432,714.876,1473.178,719.229z"/>
<path style="fill:#BC9F22;" d="M1663.245,918.767l-3.596-3.459c-56.901,59.118-96.748,136.056-112.202,216.64l4.901,0.94
	C1567.62,1053.24,1607.004,977.198,1663.245,918.767z"/>
<path style="fill:#BC9F22;" d="M1068.713,819.646c-0.028,2.986-0.076,5.969-0.143,8.949c-0.016,0.745-0.033,1.49-0.052,2.235
	l-0.019,0.713c17.21,14.467,35.269,27.914,54.07,40.233c-0.26-4.165-0.457-8.334-0.586-12.501
	c-18.523-12.271-36.32-25.646-53.267-40.026L1068.713,819.646z"/>
<path style="fill:#BC9F22;" d="M1105.062,1084.429c30.173,17.077,61.357,32.297,93.331,45.637
	c-3.434-4.028-6.879-8.046-10.337-12.053c-24.495-10.608-48.504-22.335-71.926-35.172
	C1112.443,1083.386,1108.753,1083.915,1105.062,1084.429z"/>
<path style="fill:#BC9F22;" d="M1215.882,1129.5c0.433,0.51,0.865,1.021,1.298,1.532c-0.288-0.454-0.577-0.907-0.865-1.362
	L1215.882,1129.5z"/>
<path style="fill:#BC9F22;" d="M1320.474,1170.957c1.259,0.324,2.365-6.975,0.439-7.47c-5.818-1.498-11.619-3.055-17.404-4.667
	c-11.451-3.19-22.838-6.602-34.151-10.239c-0.59,2.355-1.18,4.702-1.771,7.039c13.126,4.243,26.351,8.184,39.663,11.825
	C1311.65,1168.648,1316.057,1169.82,1320.474,1170.957z"/>
<path style="fill:#BC9F22;" d="M1169.226,1345.005l0.266,0.025c2.148,0.206,4.294,0.425,6.438,0.657l0.407,0.045
	c0.908,0.099,1.815,0.201,2.722,0.305l0.049,0.005c-9.654-6.01-19.147-12.28-28.464-18.809
	c-15.605-10.935-30.683-22.595-45.199-34.924c-2.952,0.441-5.907,0.859-8.866,1.253c21.252,18.493,43.756,35.505,67.286,50.959
	c0.653,0.055,1.306,0.113,1.958,0.171l0.5,0.044C1167.291,1344.824,1168.258,1344.913,1169.226,1345.005z"/>
<path style="fill:#BC9F22;" d="M1405.42,1434.156c5.366,3.199,10.683,6.407,15.95,9.606c4.02,0.638,8.045,1.24,12.076,1.806
	c0.513,0.072,0.961-0.036,1.341-0.272c-1.756-2.611-3.514-5.221-5.275-7.828c-8.621-1.267-17.217-2.709-25.782-4.318
	C1404.293,1433.484,1404.857,1433.82,1405.42,1434.156z"/>
<path style="fill:#BC9F22;" d="M1292.221,658.415c-12.745-80.703-5.09-163.825,22.449-240.77c0.75-2.095,1.286-6.084-0.726-7.735
	c-1.888-1.549-3.817-0.462-4.607,1.746c-28.5,79.627-36.817,165.798-23.619,249.365
	C1286.88,668.372,1293.122,664.119,1292.221,658.415z"/>
<path style="fill:#5E4F16;" d="M1063.331,909.748c0.334-3.558,0.663-7.132,0.983-10.722c0.256-2.872,0.506-5.754,0.749-8.646
	c0.243-2.891,0.479-5.791,0.706-8.7c0.17-2.182,0.335-4.368,0.495-6.559c0.106-1.46,0.21-2.923,0.312-4.386
	c0.184-2.663,0.359-5.333,0.524-8.008l0.049-0.798c0.18-2.942,0.347-5.891,0.501-8.846c0.372-7.15,0.661-14.333,0.849-21.539
	l0.019-0.713c0.019-0.745,0.036-1.489,0.052-2.235c0.066-2.98,0.114-5.963,0.143-8.949l0.003-0.397
	c0.026-2.855,0.034-5.711,0.021-8.57c-0.016-3.738-0.064-7.481-0.149-11.223c-0.017-0.749-0.035-1.498-0.055-2.246
	c-0.04-1.498-0.085-2.995-0.137-4.493c-0.052-1.498-0.109-2.995-0.173-4.493c-0.064-1.498-0.134-2.996-0.21-4.494
	c-0.038-0.749-0.078-1.498-0.12-2.247c-0.249-4.493-0.557-8.984-0.929-13.471c-0.248-2.991-0.525-5.981-0.831-8.968
	c-0.153-1.494-0.314-2.986-0.483-4.479c-0.084-0.746-0.171-1.492-0.259-2.237c-0.206-1.743-0.424-3.483-0.651-5.224
	c-0.162-1.239-0.328-2.477-0.501-3.714c-0.104-0.744-0.21-1.487-0.319-2.23c-0.324-2.23-0.668-4.458-1.03-6.682
	c-0.121-0.741-0.244-1.483-0.369-2.224c-0.5-2.964-1.036-5.922-1.607-8.876l-0.038-0.194c-0.417-2.15-0.853-4.297-1.309-6.44
	c-0.313-1.472-0.636-2.943-0.968-4.411c-0.166-0.734-0.335-1.468-0.505-2.202c-0.342-1.467-0.694-2.932-1.055-4.396
	c-0.181-0.731-0.364-1.463-0.549-2.193c-0.742-2.923-1.524-5.838-2.347-8.745c-1.029-3.634-2.122-7.254-3.283-10.859
	c-0.289-0.897-0.581-1.792-0.875-2.688l-0.204-0.62c-0.231-0.701-0.464-1.402-0.698-2.102l-0.232-0.694
	c-0.293-0.872-0.589-1.744-0.888-2.616l-0.106-0.308c-0.274-0.8-0.552-1.6-0.831-2.399l-0.215-0.612
	c-0.261-0.747-0.525-1.493-0.791-2.238l-0.17-0.477c-0.33-0.923-0.663-1.846-0.999-2.767l-0.001-0.001
	c-0.332-0.912-0.667-1.823-1.006-2.734l-0.124-0.333c-20.493-55.049-51.439-106.979-93.851-144.93
	c5.334,6.267,10.378,12.788,15.226,19.387c12.076,16.439,23.051,33.712,32.437,51.831c8.881,17.146,16.604,35.219,21.198,54.021
	c3.869,15.834,5.602,32.902,0.93,48.758c-0.845,2.868-4.232,4.824-7.128,3.809c-1.341-0.469-2.673-0.961-3.998-1.469
	c3.467,8.527,6.713,17.248,9.728,26.18c25.783,76.375,39.041,157.146,38.816,238.319l1.283,1.245
	c1.435-15.049,3.048-30.594,4.568-46.496C1063.062,912.591,1063.197,911.171,1063.331,909.748z"/>
<path style="fill:#5E4F16;" d="M1056.062,958.277l0.459,0.445c-0.226-1.292-0.455-2.582-0.686-3.873
	C1055.914,955.991,1055.989,957.134,1056.062,958.277z"/>
<path style="fill:#5E4F16;" d="M987.631,732.95c-10.303-2.082-20.016-6.031-29.774-9.84c5.672,17.142,11.519,34.273,13.07,52.378
	c1.503,17.546-0.101,36.247-8.115,52.145c-2.506,4.974-5.538,9.702-8.958,14.147c21.431,30.232,45.257,58.91,70.383,86.347
	c7.584,7.033,15.111,14.127,22.588,21.272c-6.159-74.697-24.823-147.979-55.102-216.592l-0.09-0.212
	C990.461,733.104,989.078,733.243,987.631,732.95z"/>
<path style="fill:#988119;" d="M1018.26,720.941c-3.015-8.932-6.261-17.653-9.728-26.18
	C982.037,629.6,942.4,575.873,890.364,527.768c39.573,62.492,73.245,128.957,100.539,198.153c0.223-1.357,0.689-2.639,1.441-3.678
	c1.73-2.39,4.619-2.641,5.938,0.349c32.41,73.443,52.039,152.17,57.553,232.257c0.231,1.291,0.459,2.581,0.686,3.873l0.555,0.538
	C1057.301,878.087,1044.043,797.315,1018.26,720.941z"/>
<path style="fill:#5E4F16;" d="M1267.588,1155.62c0.59-2.337,1.18-4.684,1.771-7.039c0.411-1.641,0.822-3.286,1.232-4.936
	c0.327-1.313,0.652-2.628,0.978-3.946c0.651-2.636,1.3-5.282,1.944-7.94c0.161-0.664,0.322-1.329,0.483-1.994
	c0.288-1.194,0.575-2.391,0.862-3.589c2.643-11.058,5.199-22.283,7.559-33.637c0.234-1.126,0.466-2.253,0.696-3.381
	c0.14-0.687,0.279-1.375,0.418-2.063c1.247-6.191,2.43-12.42,3.532-18.678l0.156-0.895l0.208-1.192
	c2.222-12.846,4.094-25.816,5.464-38.86c2.036-19.396,2.962-38.952,2.271-58.499l-0.001-0.029
	c-0.482-13.598-1.745-27.192-3.961-40.723l-0.062-0.369c-0.116-0.71-0.235-1.418-0.355-2.128l-0.165-0.965
	c-0.098-0.573-0.197-1.146-0.298-1.718l-0.154-0.879c-0.149-0.838-0.299-1.676-0.453-2.514l-0.071-0.386
	c-0.135-0.734-0.272-1.468-0.411-2.203l-0.15-0.788c-0.13-0.682-0.262-1.365-0.395-2.047l-0.11-0.566
	c-0.173-0.879-0.348-1.758-0.526-2.636l-0.061-0.298c-0.165-0.809-0.332-1.619-0.501-2.428l-0.092-0.438
	c-0.225-1.071-0.456-2.141-0.69-3.211l-0.24-1.098c-0.186-0.842-0.374-1.683-0.565-2.524l-0.178-0.789
	c-0.228-0.996-0.46-1.991-0.694-2.985l-0.32-1.344c-0.155-0.646-0.311-1.292-0.468-1.937
	c-12.096-49.541-32.929-97.152-64.401-135.153c4.118,6.627,7.928,13.451,11.543,20.321c9.006,17.113,16.861,34.853,23.108,53.162
	c5.911,17.326,10.605,35.358,12.264,53.632c1.396,15.389,0.617,31.635-5.997,45.843c-1.196,2.57-4.647,3.926-7.22,2.567
	c-1.19-0.629-2.37-1.278-3.541-1.94c2.05,8.483,3.863,17.116,5.432,25.914c12.118,67.974,14.145,137.874,5.834,206.835
	c-0.238,5.233-0.528,10.464-0.87,15.693c-0.037,0.565-0.136,1.292-0.31,2.067l0.46,0.571c0.813-3.24,1.638-6.504,2.47-9.789
	C1264.517,1167.738,1266.05,1161.711,1267.588,1155.62z"/>
<path style="fill:#5E4F16;" d="M1225.018,965.259c-9.366-3.404-17.916-8.474-26.527-13.42c2.903,16.87,5.97,33.754,4.874,50.947
	c-1.062,16.661-5.202,33.967-14.954,47.743c-3.05,4.31-6.559,8.316-10.391,12.002c11.852,23.477,25.087,46.327,39.252,68.609
	c11.853,13.988,23.564,28.095,35.137,42.313c1.182-20.97,1.501-41.968,0.957-62.933c-4.514-49.085-12.212-97.797-23-145.721
	C1228.896,965.773,1226.955,965.963,1225.018,965.259z"/>
<path style="fill:#BD9C13;" d="M1255.424,958.315c-1.568-8.799-3.382-17.432-5.432-25.914
	c-15.66-64.822-45.251-120.776-87.258-173.206c29.073,65.925,51.715,134.906,67.631,205.604c10.788,47.923,18.486,96.636,23,145.721
	c-1.492-57.551-9.481-114.858-23.967-170.688c-0.737-2.842-0.595-8.167,2.108-10.133c2.685-1.953,4.87,0.253,5.588,3.018
	c19.657,75.764,27.718,154.276,24.163,232.433C1269.569,1096.189,1267.543,1026.289,1255.424,958.315z"/>
<path style="fill:#5E4F16;" d="M1559.514,717.046c1.44,7.668,2.523,15.408,3.406,23.121c2.202,19.213,3.105,38.593,2.301,57.922
	c-0.76,18.291-2.911,36.799-7.978,54.435c-4.268,14.851-10.875,29.714-22.182,40.564c-2.045,1.963-5.753,1.979-7.659-0.22
	c-0.882-1.018-1.747-2.049-2.599-3.09c-1.159,8.649-2.593,17.353-4.315,26.123c-3.55,18.078-7.821,36.022-12.794,53.783
	l-0.013,0.049c-5.459-26.92-13.745-52.961-25.319-77.258c2.719,8.521,5.04,17.174,7.132,25.824
	c5.211,21.548,8.968,43.468,10.777,65.571c1.711,20.915,1.872,42.275-1.409,63.052c-2.764,17.497-8.187,35.336-19.522,49.273
	c-2.05,2.521-6.266,3.061-8.745,0.828c-1.147-1.033-2.276-2.085-3.392-3.15c-0.101,10.004-0.506,20.108-1.23,30.328
	c-5.052,71.324-19.7,142.084-43.551,209.885c-3.396,12.369-7.137,24.649-11.217,36.824c0.68-1.263,1.363-2.528,2.048-3.796
	c4.512-8.357,9.114-16.846,13.746-25.464c4.2-7.815,8.425-15.735,12.63-23.757c0.73-1.392,1.459-2.787,2.187-4.186
	c1.093-2.097,2.183-4.202,3.27-6.314c0.725-1.407,1.449-2.818,2.171-4.231c0.723-1.413,1.443-2.83,2.163-4.249
	c0.719-1.42,1.437-2.842,2.152-4.268c0.716-1.425,1.429-2.854,2.141-4.285c0.712-1.431,1.421-2.865,2.129-4.302
	c1.06-2.156,2.115-4.318,3.165-6.487c3.021-6.246,5.991-12.547,8.892-18.9c0.457-1,0.911-2.001,1.365-3.003
	c1.332-2.949,2.649-5.908,3.948-8.879c0.649-1.485,1.295-2.974,1.936-4.465s1.276-2.985,1.907-4.481
	c0.631-1.497,1.257-2.996,1.878-4.498c1.242-3.004,2.464-6.018,3.663-9.044c0.6-1.512,1.194-3.028,1.783-4.546
	c0.589-1.518,1.171-3.038,1.748-4.562c0.865-2.284,1.716-4.575,2.553-6.872c0.279-0.766,0.556-1.532,0.832-2.299
	c0.552-1.534,1.097-3.07,1.635-4.609c0.538-1.539,1.07-3.08,1.594-4.624c0.524-1.544,1.043-3.09,1.553-4.639
	c0.51-1.549,1.013-3.101,1.509-4.655c0.495-1.554,0.984-3.111,1.465-4.67c0.48-1.559,0.953-3.121,1.418-4.685
	c0.785-2.639,1.547-5.285,2.285-7.939c0.492-1.769,0.974-3.541,1.445-5.316c0.706-2.663,1.388-5.332,2.045-8.009
	c0.389-1.586,0.769-3.174,1.14-4.765c0.186-0.795,0.368-1.591,0.549-2.388c0.542-2.39,1.063-4.785,1.563-7.185
	c0.333-1.6,0.656-3.202,0.969-4.807c0.313-1.604,0.617-3.212,0.91-4.821c1.173-6.438,2.183-12.913,3.016-19.423
	c0.208-1.627,0.405-3.257,0.591-4.889c0.372-3.264,0.698-6.536,0.977-9.818c0.087-1.018,0.17-2.038,0.25-3.057l0.055-0.711
	c0.064-0.821,0.126-1.642,0.187-2.464l0.05-0.682c0.074-1.023,0.145-2.047,0.212-3.07l0.014-0.216
	c0.064-0.971,0.125-1.942,0.183-2.914l0.034-0.579c0.056-0.946,0.109-1.892,0.16-2.84l0.015-0.277
	c0.057-1.082,0.112-2.164,0.163-3.246l0.005-0.115c0.049-1.053,0.095-2.107,0.137-3.161l0.01-0.228
	c0.042-1.054,0.08-2.109,0.117-3.164c0.016-0.498,0.031-0.996,0.046-1.494c0.017-0.563,0.035-1.126,0.051-1.689
	c0.016-0.567,0.029-1.134,0.043-1.701c0.011-0.476,0.023-0.951,0.033-1.427c0.014-0.655,0.027-1.309,0.038-1.963l0.019-1.108
	c0.011-0.694,0.021-1.389,0.028-2.083l0.009-0.997c0.007-0.761,0.014-1.522,0.018-2.283l0.001-0.305
	c0.051-12.309-0.356-24.627-1.257-36.881l0.012,0.021c0.607-1.034,1.212-2.068,1.814-3.106c1.777-3.062,3.529-6.143,5.255-9.241
	c1.38-2.479,2.743-4.969,4.088-7.471c1.008-1.877,2.006-3.76,2.991-5.65c0.658-1.26,1.31-2.522,1.957-3.788
	c1.618-3.164,3.203-6.346,4.752-9.548c0.62-1.28,1.233-2.563,1.841-3.849c11.854-25.083,21.436-51.295,27.22-78.702
	c0.181-0.858,0.359-1.717,0.535-2.577l0.154-0.756c0.127-0.627,0.254-1.255,0.379-1.882l0.152-0.761
	c0.172-0.873,0.342-1.745,0.51-2.619l0.004-0.022c0.167-0.874,0.331-1.749,0.494-2.624l0.102-0.553
	c0.141-0.762,0.279-1.525,0.416-2.288l0.07-0.388c0.165-0.924,0.327-1.849,0.485-2.775l0.003-0.014
	c0.158-0.918,0.312-1.837,0.464-2.757l0.04-0.246c0.13-0.787,0.256-1.576,0.382-2.363l0.09-0.569
	c0.103-0.651,0.204-1.302,0.304-1.953l0.071-0.464C1577.501,821.864,1576.008,766.594,1559.514,717.046z"/>
<path style="fill:#5E4F16;" d="M1430.225,1123.395c-9.455-6.409-17.536-14.444-25.722-22.355
	c-1.504,19.565-2.83,39.192-8.869,57.995c-5.853,18.221-15.307,36.297-30.01,48.875c-4.599,3.934-9.623,7.403-14.916,10.426
	c10.331,46.12,24.866,91.48,41.621,135.841c0.255,0.676,0.511,1.352,0.768,2.028c0.351,0.925,0.703,1.849,1.055,2.773
	c0.622,1.628,1.246,3.254,1.873,4.879l0.101,0.262c1.764,2.509,3.526,5.021,5.284,7.534c5.022-14.357,9.54-28.867,13.552-43.506
	c12.462-67.356,19.583-135.568,21.337-203.763C1434.392,1125.054,1432.182,1124.721,1430.225,1123.395z"/>
<path style="fill:#BD9C13;" d="M1467.201,1093.876c0.772-76.443-16.429-146.935-48.416-216.992
	c13.829,81.43,19.65,164.453,17.514,247.499c-1.754,68.195-8.874,136.406-21.337,203.763c16.69-60.902,24.64-124,23.828-187.262
	c-0.03-2.335,1.479-7.409,4.639-7.224c3.403,0.201,3.728,5.276,3.759,7.718c0.836,65.081-7.558,130.04-24.768,192.711
	c23.851-67.801,38.498-138.56,43.551-209.885C1466.695,1113.984,1467.1,1103.88,1467.201,1093.876z"/>
<path style="fill:#5E4F16;" d="M912.47,996.869c-8.187,7.969-17.688,14.265-27.09,20.687c18.862,5.422,37.823,10.68,55.023,20.391
	c11.329,6.395,22.253,14.409,31.028,24.204c21.635,0.429,43.302-0.429,64.865-2.61c3.689-0.374,3.499,10.785-0.659,11.206
	c-18.477,1.87-37.033,2.805-55.596,2.769c0.76,1.209,1.492,2.438,2.184,3.691c2.926,5.3,5.311,10.921,7.203,16.716
	c52.472-0.904,105.073-7.07,156.932-15.912l0.51-0.087c1.552-0.265,3.104-0.533,4.655-0.803l0.411-0.071
	c-3.011-3.342-6.029-6.679-9.059-10.005c-73.688-32.34-150.216-57.757-228.215-75.926
	C914.935,993.122,914.164,995.22,912.47,996.869z"/>
<path style="fill:#5E4F16;" d="M696.778,899.201c8.896-0.944,17.841-1.472,26.737-1.776c22.16-0.757,44.392-0.014,66.409,2.675
	c20.835,2.544,41.792,6.697,61.483,14.104c16.583,6.238,32.965,15.15,44.33,29.067c2.056,2.517,1.734,6.756-0.953,8.734
	c-1.244,0.915-2.502,1.809-3.77,2.687c9.779,2.117,19.596,4.553,29.461,7.325c35.94,10.096,71.203,22.723,105.466,37.756
	c28.267,9.305,56.148,19.791,83.564,31.378c-0.667-0.702-1.332-1.405-1.999-2.107c-3.465-2.846-6.957-5.694-10.474-8.539
	c-4.743-3.835-9.533-7.663-14.372-11.47c-1.883-1.481-3.773-2.959-5.671-4.433c-1.265-0.983-2.534-1.964-3.806-2.943
	c-0.636-0.489-1.273-0.979-1.91-1.467c-1.275-0.977-2.554-1.952-3.836-2.924c-0.641-0.486-1.283-0.972-1.926-1.457
	c-3.214-2.425-6.448-4.835-9.706-7.226c-2.606-1.913-5.226-3.814-7.859-5.7c-0.819-0.586-1.639-1.172-2.461-1.755
	c-5.786-4.111-11.639-8.152-17.565-12.103c-1.353-0.903-2.71-1.8-4.071-2.693c-2.721-1.785-5.458-3.552-8.21-5.296
	c-1.375-0.873-2.755-1.739-4.139-2.6c-2.767-1.723-5.549-3.423-8.347-5.098c-2.098-1.257-4.205-2.5-6.321-3.728
	c-4.937-2.866-9.922-5.654-14.956-8.353c-0.719-0.386-1.439-0.769-2.16-1.151c-2.164-1.146-4.336-2.275-6.518-3.387
	c-1.455-0.741-2.914-1.474-4.376-2.2c-3.657-1.813-7.339-3.577-11.048-5.287c-1.484-0.684-2.971-1.36-4.463-2.026
	c-14.919-6.668-30.26-12.459-46.051-17.136l-0.099-0.029c-0.923-0.273-1.847-0.543-2.772-0.811l-0.885-0.255
	c-0.702-0.203-1.404-0.403-2.108-0.603l-0.864-0.245c-0.965-0.272-1.931-0.542-2.899-0.809l-0.234-0.063
	c-0.904-0.249-1.81-0.496-2.716-0.74l-0.741-0.199c-0.848-0.227-1.697-0.453-2.546-0.676l-0.411-0.108
	c-1.042-0.273-2.085-0.543-3.129-0.81l-0.029-0.008c-1.032-0.263-2.066-0.523-3.1-0.78l-0.279-0.069
	c-0.898-0.223-1.798-0.443-2.698-0.661l-0.582-0.141c-0.764-0.185-1.529-0.367-2.294-0.548l-0.408-0.096
	C818.255,888.245,754.934,884.882,696.778,899.201z"/>
<path style="fill:#5E4F16;" d="M1128.056,1050.924c-5.278-2.359-10.575-4.675-15.888-6.951c7.346,4.344,14.626,8.807,21.837,13.388
	C1132.026,1055.212,1130.043,1053.066,1128.056,1050.924z"/>
<path style="fill:#988119;" d="M891.014,954.691c-74.729-16.182-147.255-13.556-222.339,3.643
	c82.56,2.885,165.067,13.935,245.989,32.785c77.999,18.169,154.527,43.586,228.215,75.926c-2.948-3.236-5.908-6.463-8.874-9.684
	c-7.21-4.58-14.49-9.044-21.837-13.388c-66.136-28.326-134.983-50.21-205.53-64.482c-4.411-0.892-3.356-12.018,0.659-11.206
	c40.143,8.121,79.759,18.685,118.644,31.486c-34.262-15.033-69.525-27.66-105.466-37.756
	C910.61,959.244,900.793,956.808,891.014,954.691z"/>
<path style="fill:#5E4F16;" d="M1451.317,1470.035c-3.026-1.214-6.06-2.409-9.1-3.587c-75.526-20.096-152.698-33.334-230.235-39.604
	c0.564,1.941,0.111,4.13-1.321,6.011c-6.92,9.091-15.388,16.72-23.739,24.459c19.456,2.578,38.985,4.98,57.43,12.045
	c12.961,4.964,25.74,11.818,36.268,21.07c28.169-2.882,56.158-7.573,83.732-14.059c3.726-0.876,4.187,6.527,0.963,7.285
	c-25.658,6.034-51.646,10.565-77.834,13.525c1.406,1.555,2.755,3.163,4.032,4.834c3.676,4.809,6.865,10.017,9.592,15.469
	c51.691-8.629,102.734-22.466,152.653-38.837l0.901-0.295c0.594-0.196,1.187-0.393,1.78-0.588
	C1454.734,1475.186,1453.026,1472.61,1451.317,1470.035z"/>
<path style="fill:#5E4F16;" d="M1421.37,1443.762c-5.267-3.199-10.585-6.406-15.95-9.606c-0.563-0.336-1.126-0.672-1.69-1.007
	c-0.789-0.469-1.579-0.938-2.37-1.407c-2.035-1.206-4.077-2.411-6.125-3.613c-1.366-0.802-2.735-1.602-4.106-2.401
	c-0.686-0.399-1.373-0.799-2.06-1.198c-1.375-0.798-2.753-1.594-4.134-2.389c-2.762-1.59-5.536-3.172-8.323-4.747
	c-2.09-1.181-4.187-2.357-6.291-3.528c-1.402-0.781-2.808-1.559-4.216-2.334c-4.226-2.326-8.479-4.627-12.759-6.899
	c-2.854-1.514-5.719-3.014-8.597-4.5c-1.438-0.743-2.881-1.481-4.326-2.216c-1.445-0.734-2.893-1.465-4.343-2.191
	c-2.092-1.047-4.19-2.085-6.295-3.113c-10.3-5.032-20.75-9.831-31.346-14.314c-0.751-0.318-1.502-0.634-2.255-0.948
	c-11.282-4.715-22.729-9.065-34.339-12.952c-0.774-0.259-1.549-0.516-2.324-0.771c-1.552-0.509-3.105-1.011-4.662-1.504
	c-0.779-0.247-1.557-0.491-2.337-0.733c-1.56-0.484-3.122-0.96-4.688-1.426c-1.565-0.467-3.133-0.924-4.705-1.373
	c-4.714-1.346-9.453-2.608-14.218-3.782c-11.912-2.934-23.986-5.312-36.217-7.032c-0.979-0.138-1.959-0.272-2.94-0.405l-0.943-0.126
	c-0.745-0.099-1.491-0.197-2.237-0.293l-0.79-0.102c-1.013-0.129-2.028-0.256-3.042-0.379l-0.1-0.012
	c-0.993-0.12-1.985-0.237-2.979-0.352l-0.554-0.063l-0.049-0.005c-0.907-0.104-1.813-0.206-2.722-0.305l-0.407-0.045
	c-2.144-0.232-4.29-0.451-6.438-0.657l-0.266-0.025c-0.967-0.092-1.935-0.181-2.903-0.268l-0.5-0.044
	c-62.509-5.538-126.684,0.323-182.909,23.407c8.659-2.247,17.429-4.089,26.182-5.703c21.806-4.02,43.904-6.568,66.077-7.159
	c20.982-0.56,42.322,0.453,62.891,4.872c17.322,3.721,34.839,10.117,48.135,22.204c2.405,2.186,2.713,6.426,0.346,8.778
	c-1.094,1.089-2.207,2.159-3.332,3.214c9.985,0.651,20.053,1.61,30.22,2.895c39.369,4.975,78.401,12.891,116.694,23.657
	c35.649,8.037,70.749,18.51,105.016,31.308c-1.911-1.171-3.828-2.344-5.752-3.519
	C1426.73,1447.022,1424.056,1445.393,1421.37,1443.762z"/>
<path style="fill:#988119;" d="M1183.213,1394.307c-76.299-4.972-147.642,8.333-219.364,36.427
	c82.082-9.336,165.315-10.587,248.133-3.89c77.536,6.27,154.709,19.508,230.235,39.604c-73.453-28.452-150.88-46.002-229.479-51.741
	c-4.362-0.318-3.638-11.52,0.659-11.206c39.311,2.87,78.339,8.702,116.73,17.358c-38.293-10.766-77.326-18.682-116.694-23.657
	C1203.266,1395.917,1193.198,1394.958,1183.213,1394.307z"/>
<path style="fill:#5E4F16;" d="M870.419,1170.672c7.418-2.462,14.955-4.579,22.493-6.495c18.775-4.774,37.89-8.28,57.185-10.085
	c18.258-1.709,36.92-2.067,55.109,0.588c15.316,2.236,30.959,6.793,43.253,16.556c2.224,1.766,2.739,5.444,0.813,7.633
	c-0.891,1.012-1.798,2.009-2.717,2.995c8.742-0.014,17.575,0.237,26.512,0.766c10.221,0.604,20.431,1.436,30.622,2.489
	c46.978,2.038,93.726,8.383,139.581,18.906c-3.898-1.988-7.823-3.97-11.776-5.941c-3.1-1.545-6.216-3.083-9.348-4.61
	c-3.132-1.527-6.28-3.044-9.444-4.547c-1.898-0.901-3.802-1.798-5.711-2.689c-0.637-0.297-1.274-0.594-1.911-0.889
	c-2.551-1.183-5.112-2.355-7.683-3.515c-1.286-0.58-2.573-1.157-3.863-1.731c-1.291-0.574-2.583-1.144-3.878-1.711
	c-1.295-0.567-2.592-1.13-3.892-1.691c-1.3-0.56-2.602-1.116-3.907-1.668c-1.957-0.829-3.919-1.649-5.887-2.459
	c-1.312-0.541-2.625-1.077-3.942-1.608c-1.316-0.532-2.635-1.06-3.956-1.583c-3.963-1.568-7.946-3.096-11.95-4.576
	c-0.668-0.247-1.336-0.493-2.004-0.736c-32.753-11.963-66.847-20.744-102.006-23.321l-0.371-0.026
	c-0.735-0.053-1.471-0.105-2.207-0.155l-0.84-0.056c-0.645-0.042-1.289-0.084-1.935-0.124l-0.749-0.046
	c-0.859-0.052-1.718-0.101-2.578-0.148l-0.451-0.024c-0.751-0.04-1.503-0.078-2.255-0.115l-0.706-0.034
	c-0.726-0.034-1.451-0.067-2.178-0.097l-0.509-0.022c-0.895-0.037-1.789-0.071-2.685-0.103l-0.413-0.013
	c-0.791-0.027-1.581-0.052-2.372-0.075l-0.494-0.014c-0.809-0.023-1.618-0.043-2.428-0.061l-0.522-0.011
	c-0.688-0.014-1.377-0.028-2.065-0.04l-0.34-0.006C972.01,1138.706,917.366,1147.632,870.419,1170.672z"/>
<path style="fill:#5E4F16;" d="M1274.454,1223.25c-5.413-1.485-10.842-2.912-16.283-4.279c6.003,2.046,11.98,4.176,17.93,6.386
	C1275.552,1224.655,1275.004,1223.952,1274.454,1223.25z"/>
<path style="fill:#5E4F16;" d="M1072.724,1213.871c-5.504,8.328-12.442,15.471-19.272,22.704
	c17.111,1.115,34.275,2.072,50.766,7.158c13.211,4.074,26.357,10.303,36.812,19.524c6.447-0.627,12.888-1.321,19.322-2.085
	c1.351-0.161,1.487,7.242-0.44,7.47c-4.068,0.483-8.138,0.939-12.212,1.368c3.29,3.829,6.219,7.991,8.791,12.375
	c41.546-9.817,82.336-23.55,122.162-39.284c0.453-0.179,0.907-0.359,1.361-0.538c0.936-0.371,1.871-0.742,2.806-1.116
	c1.165-0.465,2.329-0.932,3.492-1.401l0.912-0.367c-2.4-3.107-4.804-6.211-7.215-9.309c-68.13-13.566-137.354-20.845-206.485-21.816
	C1074.131,1210.214,1073.863,1212.148,1072.724,1213.871z"/>
<path style="fill:#BD9C13;" d="M1046.554,1181.864c-66.803,0.105-128.223,15.854-189.111,44.519
	c71.011-12.914,143.497-18.848,216.083-17.828c69.131,0.971,138.355,8.25,206.485,21.816c-1.302-1.672-2.605-3.343-3.91-5.013
	c-5.95-2.211-11.927-4.34-17.93-6.386c-72.535-18.223-147.512-25.945-222.278-22.614c-4.189,0.187-3.782-11.008,0.659-11.206
	c22.384-0.997,44.786-1.002,67.137-0.033c-10.191-1.053-20.401-1.885-30.622-2.489
	C1064.129,1182.101,1055.296,1181.85,1046.554,1181.864z"/>
<path style="fill:#5E4F16;" d="M709.185,717.335c-12.357,6.759-25.721,11.096-39.01,15.615
	c20.61,12.674,41.389,25.185,58.607,42.402c16.686,16.686,31.183,37.238,36.693,60.45c1.724,7.261,2.698,14.725,3.03,22.233
	c63.879,16.597,129.726,26.735,195.538,33.369c-65.934-57.371-135.815-110.212-209.679-156.972l-0.49-0.477
	c-13.289-7.769-26.685-15.344-40.182-22.723C713.352,713.701,711.742,715.937,709.185,717.335z"/>
<path style="fill:#5E4F16;" d="M517.647,536.782c26.568,6.426,52.725,14.656,77.985,25.126
	c23.902,9.908,47.418,21.766,68.356,37.071c17.632,12.889,34.141,28.888,43.04,49.171c1.609,3.669-0.174,8.597-4.019,10.057
	c-1.778,0.674-3.565,1.32-5.36,1.944c10.913,5.746,21.764,11.887,32.563,18.438c85.571,51.912,163.379,116.976,229.898,192.592
	c4.368,3.708,8.718,7.437,13.052,11.185c-15.627-22.706-31.74-46.52-48.727-70.511c-1.123-1.586-2.25-3.173-3.381-4.761
	c-19.794-27.786-40.792-55.729-63.596-82.386c-1.303-1.523-2.612-3.042-3.927-4.557c-7.89-9.087-15.995-18.014-24.341-26.722
	c-0.695-0.725-1.393-1.449-2.091-2.172c-5.591-5.781-11.29-11.461-17.103-17.026c-2.18-2.086-4.376-4.157-6.589-6.21
	c-1.475-1.369-2.958-2.73-4.448-4.083c-0.745-0.677-1.492-1.351-2.241-2.023c-2.247-2.017-4.51-4.017-6.79-5.997
	c-1.521-1.32-3.048-2.632-4.584-3.934c-4.608-3.909-9.285-7.738-14.036-11.482c-4.75-3.743-9.574-7.4-14.474-10.964
	c-1.633-1.188-3.275-2.365-4.925-3.533c-6.602-4.668-13.34-9.164-20.224-13.474c-0.749-0.469-1.5-0.935-2.251-1.402l-0.693-0.429
	c-0.698-0.432-1.397-0.863-2.097-1.293l-0.17-0.105c-0.745-0.457-1.492-0.912-2.241-1.367l-0.731-0.444
	c-0.623-0.378-1.246-0.754-1.87-1.129l-0.44-0.265c-0.72-0.433-1.443-0.864-2.165-1.294l-0.84-0.499
	c-0.539-0.32-1.079-0.639-1.619-0.957l-0.738-0.435c-0.669-0.393-1.338-0.785-2.009-1.175l-1.191-0.692l-0.995-0.575l-1.228-0.708
	l-0.196-0.112c-1.054-0.605-2.109-1.206-3.167-1.806l-0.482-0.273c-1.705-0.963-3.415-1.92-5.13-2.868l-0.106-0.059
	c-0.987-0.545-1.976-1.088-2.966-1.628l-0.532-0.29c-0.862-0.47-1.725-0.937-2.589-1.402l-0.392-0.211
	c-65.462-35.187-137.64-58.897-209.539-61.057C496.184,531.873,506.982,534.203,517.647,536.782z"/>
<path style="fill:#BD9C13;" d="M730.212,678.589c-10.799-6.551-21.65-12.692-32.563-18.438
	c-83.402-43.919-170.405-64.768-265.262-69.158c97.097,30.714,191.43,71.106,281.304,120.239
	c13.496,7.379,26.892,14.953,40.182,22.723c-0.909-1.592,3.845-3.93,4.637-4.239c2.66-1.039,6.79-2.128,9.404-0.473
	c9.657,6.114,19.255,12.321,28.782,18.636c56.918,37.731,111.367,79.105,163.414,123.302
	C893.591,795.565,815.783,730.501,730.212,678.589z"/>
<path style="fill:#BC9F22;" d="M665.433,784.067c-79.698-36.342-152.424-87.287-214.641-148.885
	c-17.76-17.584-34.628-36.043-50.619-55.247c-1.61-1.933-2.846,4.509-2.928,5.064c-0.379,2.546-0.885,7.076,0.947,9.277
	c56.756,68.161,125.059,126.67,201.754,171.318c20.967,12.206,42.534,23.349,64.607,33.414
	C665.969,799.653,669.271,785.817,665.433,784.067z"/>
<path style="fill:#BC9F22;" d="M1145.434,793.362c0.498-4.619-4.676-4.876-5.168-0.304c-8.012,74.38,3.026,150.319,30.776,219.725
	c1.817,4.545,6.04-0.118,4.685-3.508C1148.421,940.98,1137.55,866.554,1145.434,793.362z"/>
<path style="fill:#BC9F22;" d="M1358.75,1149.958l4.906-0.896c-14.589-79.778-5.396-164.918,25.886-239.741l-4.604-1.924
	C1353.289,983.099,1343.988,1069.242,1358.75,1149.958z"/>
<path style="fill:#BC9F22;" d="M1036.296,1059.541c-21.563,2.182-43.23,3.04-64.865,2.61
	c-65.287-1.298-130.271-14.332-191.148-38.154c-23.335-9.131-46.013-19.846-67.948-31.956c-3.754-2.072-5.529,8.857-2.162,10.715
	c77.058,42.542,163.861,67.262,251.899,70.422c5.989,0.215,11.98,0.326,17.97,0.338c18.564,0.035,37.119-0.9,55.596-2.769
	C1039.795,1070.326,1039.985,1059.167,1036.296,1059.541z"/>
<path style="fill:#BC9F22;" d="M1160.353,1261.172c-6.434,0.764-12.875,1.458-19.322,2.085
	c-81.502,7.929-163.938,4.857-244.514-10.049c-1.411-0.261-2.298,7.127-0.439,7.471c82.919,15.34,167.81,18.149,251.624,9.331
	c4.073-0.428,8.144-0.884,12.212-1.368C1161.84,1268.413,1161.704,1261.011,1160.353,1261.172z"/>
<path style="fill:#BC9F22;" d="M1061.199,1475.78c-28.064-6.811-55.605-15.66-82.426-26.358c-3.53-1.408-4.911,5.885-1.81,7.122
	c95.692,38.166,200.561,51.824,302.961,41.447c2.52-0.255,5.039-0.526,7.557-0.811c26.188-2.961,52.177-7.491,77.834-13.525
	c3.224-0.758,2.764-8.161-0.963-7.285c-27.575,6.485-55.563,11.176-83.732,14.059
	C1207.346,1497.927,1132.847,1493.168,1061.199,1475.78z"/>
<path style="fill:#BC9F22;" d="M882.914,565.195c-0.054-2.045-1.441-4.755-3.806-4.151c-2.502,0.64-2.747,4.854-2.697,6.758
	c2.227,83.911,25.697,166.758,67.921,239.312c3.322,5.708,7.229-4.003,5.106-7.651C908.019,728.292,885.098,647.508,882.914,565.195
	z"/>
</svg>
