<?xml version="1.0" encoding="utf-8"?>
<!-- Generator: Adobe Illustrator 27.5.0, SVG Export Plug-In . SVG Version: 6.00 Build 0)  -->
<svg version="1.1" id="Capa_1" xmlns="http://www.w3.org/2000/svg" xmlns:xlink="http://www.w3.org/1999/xlink" x="0px" y="0px"
	 viewBox="0 0 2122 2122" style="enable-background:new 0 0 2122 2122;" xml:space="preserve">
<path style="fill:#3D712E;" d="M1797.44,1134.677l-22.076,3.757c-0.017,0.016-0.032,0.034-0.049,0.051
	c-36.251,35.56-53.194,86.133-63.989,135.756c-10.801,49.646-15.658,100.724-31.339,149.052
	c-26.399,81.365-84.107,152.133-158.495,194.368c-28.826,16.366-60.052,28.367-92.338,35.843c-0.379,0.088-0.753,0.193-1.132,0.279
	c1.707-0.281,3.399-0.649,5.101-0.955c2.384-0.43,4.767-0.859,7.141-1.337c2.763-0.557,5.511-1.173,8.26-1.795
	c2.341-0.53,4.685-1.052,7.015-1.63c2.767-0.686,5.515-1.44,8.264-2.193c2.285-0.626,4.575-1.235,6.847-1.907
	c2.776-0.821,5.526-1.718,8.28-2.608c2.212-0.715,4.431-1.402,6.627-2.161c2.805-0.968,5.579-2.021,8.357-3.062
	c2.11-0.789,4.232-1.544,6.324-2.374c2.891-1.146,5.74-2.387,8.598-3.612c1.935-0.829,3.889-1.614,5.809-2.479
	c3.155-1.422,6.26-2.948,9.37-4.466c1.579-0.77,3.182-1.488,4.75-2.283c4.652-2.361,9.255-4.822,13.794-7.399
	c7.439-4.223,14.66-8.807,21.75-13.584c9.8-6.6,19.268-13.681,28.335-21.256c4.875-4.073,9.674-8.234,14.32-12.567
	c3.908-3.644,7.734-7.379,11.473-11.198c14.955-15.278,28.525-31.919,40.48-49.643c5.978-8.862,11.553-17.995,16.695-27.363
	c10.285-18.736,18.841-38.416,25.442-58.757c5.462-16.836,9.569-34.016,13.113-51.342c6.63-32.41,11.186-65.358,18.225-97.71
	c2.025-9.309,4.302-18.637,6.904-27.886C1750.573,1202.141,1767.957,1163.572,1797.44,1134.677L1797.44,1134.677z"/>
<path style="fill:#3D712E;" d="M1420.46,1156.341c-24.804,76.448-79.024,142.94-148.917,182.622
	c-27.084,15.377-56.423,26.651-86.756,33.677c-0.356,0.083-0.709,0.182-1.065,0.263c1.608-0.266,3.202-0.611,4.806-0.901
	c2.231-0.402,4.462-0.804,6.684-1.251c2.606-0.525,5.198-1.106,7.79-1.693c2.193-0.497,4.388-0.985,6.571-1.527
	c2.605-0.646,5.192-1.355,7.78-2.065c2.141-0.586,4.287-1.156,6.415-1.786c2.617-0.774,5.21-1.62,7.806-2.458
	c2.069-0.669,4.147-1.312,6.202-2.022c2.651-0.915,5.269-1.91,7.895-2.893c1.965-0.735,3.942-1.438,5.894-2.211
	c2.736-1.086,5.436-2.261,8.141-3.421c1.799-0.771,3.616-1.501,5.4-2.304c2.979-1.343,5.913-2.784,8.85-4.217
	c1.469-0.717,2.962-1.385,4.42-2.125c4.371-2.218,8.697-4.531,12.962-6.953c13.105-7.441,25.659-15.824,37.571-25.038
	c7.942-6.142,15.598-12.655,22.942-19.504c7.344-6.849,14.377-14.035,21.07-21.524c6.694-7.489,13.049-15.282,19.038-23.346
	c7.724-10.399,14.766-21.29,21.215-32.52c11.055-19.247,20.228-39.568,27.081-60.691c3.316-10.222,6.065-20.588,8.531-31.026
	c0.513-2.172,1.027-4.344,1.513-6.524c2.364-10.609,4.459-21.288,6.398-32.008c1.063-5.876,2.089-11.762,3.111-17.65
	c3.066-17.664,6.086-35.345,9.891-52.837c4.44-20.408,10.167-40.918,18.061-60.333c1.128-2.773,2.299-5.524,3.518-8.25
	c2.437-5.451,5.061-10.799,7.894-16.014c8.495-15.649,18.859-30.115,31.644-42.645l-20.742,3.53
	c-0.016,0.016-0.031,0.033-0.047,0.048c-34.061,33.412-49.979,80.929-60.122,127.553
	C1439.757,1062.942,1435.193,1110.934,1420.46,1156.341z"/>
<path style="fill:#3D712E;" d="M1228.768,874.532c-22.801,70.275-72.643,131.397-136.892,167.875
	c-24.896,14.135-51.866,24.5-79.752,30.958c-0.327,0.076-0.651,0.167-0.978,0.241c1.477-0.244,2.94-0.561,4.414-0.827
	c2.054-0.37,4.107-0.74,6.152-1.151c2.393-0.482,4.774-1.016,7.156-1.556c2.016-0.456,4.033-0.905,6.039-1.402
	c2.396-0.594,4.774-1.247,7.154-1.899c1.969-0.539,3.942-1.064,5.899-1.642c2.401-0.71,4.781-1.487,7.163-2.256
	c1.907-0.616,3.82-1.208,5.714-1.862c2.43-0.839,4.832-1.752,7.239-2.653c1.813-0.678,3.638-1.327,5.438-2.04
	c2.499-0.992,4.965-2.065,7.436-3.124c1.67-0.716,3.357-1.394,5.014-2.14c2.714-1.223,5.388-2.537,8.064-3.843
	c1.374-0.669,2.768-1.295,4.131-1.986c4.018-2.038,7.992-4.164,11.912-6.39c24.093-13.679,46.16-30.824,65.535-50.617
	c6.458-6.598,12.618-13.49,18.453-20.646c17.507-21.468,32.099-45.313,43.11-70.718c3.67-8.468,6.943-17.11,9.793-25.895
	c13.543-41.74,17.738-85.856,27.066-128.735c4.664-21.44,10.875-43.003,19.836-63.045c1.12-2.505,2.284-4.987,3.492-7.441
	c2.417-4.91,5.015-9.711,7.814-14.378c6.997-11.669,15.245-22.504,25.039-32.103l-19.067,3.244c-0.015,0.015-0.028,0.03-0.042,0.044
	c-31.31,30.713-45.943,74.393-55.268,117.253C1246.507,788.675,1242.312,832.792,1228.768,874.532z"/>
<path style="fill:#3D712E;" d="M709.583,1125.677c-73.487-7.629-143.668-43.614-192.753-98.832
	c-29.155-32.798-50.701-71.522-76.453-107.055c-25.739-35.515-56.671-69.651-97.675-85.219c-0.018-0.007-0.037-0.016-0.056-0.023
	l-18.767,4.68c5.129,1.944,10.111,4.169,14.953,6.644c14.525,7.423,27.788,17.09,39.977,28.162
	c4.062,3.69,8.006,7.536,11.837,11.508c3.831,3.971,7.55,8.068,11.163,12.258c7.227,8.381,14.031,17.137,20.469,26.02
	c3.218,4.441,6.372,8.933,9.483,13.456c9.332,13.57,18.28,27.429,27.467,41.096c5.262,7.828,10.641,15.562,16.176,23.173
	c7.352,10.107,15.01,19.974,23.326,29.329c6.055,6.812,12.438,13.325,19.101,19.535c4.117,3.836,8.369,7.521,12.697,11.116
	c38.363,31.865,84.697,54.164,133.586,64.01c9.048,1.822,18.182,3.218,27.368,4.172c4.485,0.466,8.979,0.817,13.479,1.073
	c1.5,0.085,3.002,0.097,4.503,0.159c3.003,0.124,6.005,0.255,9.01,0.286c1.801,0.019,3.601-0.037,5.401-0.051
	c2.704-0.021,5.407-0.028,8.109-0.124c1.929-0.068,3.853-0.206,5.78-0.312c2.575-0.141,5.15-0.269,7.719-0.477
	c1.986-0.16,3.966-0.384,5.949-0.584c2.501-0.251,5.002-0.496,7.496-0.811c2.023-0.255,4.04-0.566,6.058-0.862
	c2.44-0.358,4.88-0.714,7.312-1.131c2.041-0.35,4.073-0.749,6.107-1.141c2.394-0.461,4.785-0.927,7.167-1.445
	c2.041-0.444,4.072-0.93,6.103-1.415c1.455-0.348,2.922-0.645,4.372-1.013c-0.329,0.063-0.662,0.109-0.992,0.171
	C766.924,1127.305,738.06,1128.634,709.583,1125.677z"/>
<path style="fill:#3D712E;" d="M645.789,1451.073c-41.138-24.218-76.379-57.114-114.906-85.3
	c-38.51-28.173-81.935-53.184-129.585-55.606c-0.023-0.001-0.045-0.004-0.067-0.005l-17.866,11.113c5.959,0.3,11.86,0.94,17.7,1.885
	c17.517,2.834,34.476,8.412,50.793,15.804c5.439,2.464,10.806,5.129,16.099,7.961c15.879,8.496,31.085,18.495,45.532,29.065
	c38.528,28.186,73.768,61.082,114.906,85.3c4.329,2.548,8.718,4.992,13.162,7.328c8.888,4.674,17.996,8.923,27.282,12.741
	c18.572,7.635,37.856,13.545,57.517,17.674c9.83,2.064,19.753,3.683,29.731,4.851c34.918,4.085,70.476,2.633,104.876-4.649
	c4.8-1.016,9.573-2.153,14.318-3.393c1.572-0.411,3.124-0.898,4.689-1.333c3.155-0.876,6.313-1.744,9.438-2.717
	c1.878-0.584,3.731-1.246,5.598-1.865c2.787-0.924,5.579-1.831,8.339-2.831c1.976-0.715,3.924-1.502,5.887-2.256
	c2.613-1.004,5.23-1.995,7.816-3.066c2.012-0.833,3.997-1.73,5.991-2.603c2.497-1.093,4.996-2.178,7.466-3.332
	c2.015-0.943,4.003-1.941,5.999-2.924c2.403-1.183,4.804-2.365,7.178-3.606c1.998-1.045,3.97-2.137,5.946-3.223
	c2.323-1.276,4.642-2.556,6.935-3.888c1.966-1.142,3.908-2.323,5.85-3.506c1.389-0.845,2.807-1.642,4.184-2.507
	c-0.32,0.176-0.649,0.334-0.97,0.508c-27.363,14.857-56.802,25.874-87.272,32.324
	C799.726,1505.662,715.05,1491.846,645.789,1451.073z"/>
<path style="fill:#3D712E;" d="M888.867,1821.496c-47.959-16.775-91.555-43.829-137.609-65.286
	c-46.033-21.447-96.543-38.577-146.791-31.249c-0.023,0.003-0.047,0.005-0.071,0.008l-16.354,15.297l0,0
	c31.421-4.596,63.064-0.029,93.622,9.281c18.335,5.586,36.279,12.88,53.549,20.926c11.514,5.364,22.873,11.079,34.186,16.894
	c16.97,8.724,33.833,17.677,50.95,26.021c11.412,5.563,22.936,10.856,34.68,15.63c5.872,2.387,11.797,4.645,17.793,6.742
	c15.14,5.295,30.649,9.489,46.376,12.587c10.484,2.065,21.065,3.643,31.698,4.735c5.316,0.546,10.645,0.97,15.981,1.274
	c10.673,0.606,21.374,0.728,32.058,0.366c26.712-0.905,53.322-4.831,79.124-11.756c15.48-4.155,30.671-9.389,45.417-15.697
	c0.073-0.031,0.144-0.067,0.217-0.099c4.724-2.024,9.398-4.161,14.021-6.4c1.589-0.769,3.139-1.615,4.715-2.41
	c3.084-1.554,6.172-3.097,9.206-4.744c1.845-1.001,3.647-2.078,5.474-3.114c2.712-1.538,5.433-3.06,8.103-4.671
	c1.917-1.156,3.791-2.382,5.684-3.576c2.52-1.588,5.048-3.164,7.526-4.817c1.928-1.286,3.815-2.634,5.717-3.958
	c2.38-1.656,4.763-3.305,7.1-5.02c1.91-1.401,3.78-2.854,5.661-4.294c2.263-1.732,4.527-3.462,6.748-5.25
	c1.869-1.504,3.701-3.053,5.541-4.595c2.162-1.813,4.319-3.63,6.437-5.495c1.814-1.598,3.596-3.231,5.377-4.865
	c1.277-1.171,2.595-2.297,3.854-3.487c-0.298,0.25-0.609,0.484-0.909,0.733c-25.495,21.171-53.95,38.761-84.426,51.798
	C1060.873,1846.646,969.611,1849.738,888.867,1821.496z"/>
<path style="fill:#4A8531;" d="M1679.987,1423.294c15.681-48.328,20.538-99.406,31.339-149.052
	c10.795-49.623,27.738-100.196,63.989-135.756c-124.677,23.155-238.758,77.487-327.83,168.542
	c-92.016,94.064-133.299,203.783-151.701,333.238c4.32,4.223,8.62,8.446,13.007,12.668c39.675,7.239,80.583,7.271,120.364,0.571
	c32.285-7.477,63.511-19.477,92.338-35.843C1595.88,1575.427,1653.587,1504.659,1679.987,1423.294z"/>
<path style="fill:#4A8531;" d="M1184.786,1372.64c30.334-7.025,59.672-18.299,86.756-33.677
	c69.893-39.682,124.113-106.173,148.917-182.622c14.733-45.407,19.297-93.399,29.445-140.045
	c10.143-46.624,26.061-94.141,60.122-127.553c-117.143,21.756-224.33,72.805-308.02,158.358
	c-86.888,88.822-125.627,192.505-142.789,314.933c1.993,2.916,3.954,5.838,5.972,8.749
	C1104.492,1378.812,1145.228,1379.303,1184.786,1372.64z"/>
<path style="fill:#4A8531;" d="M978.657,943.794c54.885-91.986,136.652-166.308,236.43-214.993c0.679-0.331,1.534,0.666,0.964,1.13
	c-68.945,56.239-142.73,158.213-187.092,232.533c-15.328,25.681-32.157,51.184-57.648,67.864
	c-20.902,13.677-46.522,20.581-67.561,33.595c1.059,2.897,2.069,5.798,3.153,8.693c34.663,6.483,70.44,6.608,105.222,0.749
	c27.886-6.458,54.856-16.823,79.752-30.958c64.249-36.478,114.091-97.6,136.892-167.875c13.543-41.741,17.739-85.857,27.067-128.737
	c9.324-42.859,23.958-86.54,55.268-117.253c-107.683,20-206.216,66.925-283.147,145.57
	c-76.639,78.344-112.529,169.266-129.245,275.918c1.368,3.893,2.82,7.78,4.233,11.669
	C935.213,1028.093,954.661,984.01,978.657,943.794z"/>
<path style="fill:#4A8531;" d="M815.169,1066.232c-30.043-5.049-55.692-21.655-80.036-39.026
	c-70.458-50.272-178.962-114.066-264.68-137.911c-0.708-0.197-0.325-1.454,0.43-1.423c110.929,4.553,215.647,39.817,302.833,102.047
	c37.407,26.7,72.296,58.571,114.264,76.607c-3.543-9.763-6.949-19.536-10.212-29.321
	c-55.718-82.118-122.455-144.656-217.299-182.922c-102.025-41.163-211.106-44.605-317.765-19.711
	c41.004,15.568,71.935,49.704,97.675,85.219c25.752,35.532,47.298,74.257,76.453,107.055
	c49.085,55.219,119.265,91.203,192.753,98.832c28.477,2.957,57.34,1.628,85.473-3.648c34.654-8.703,67.77-23.456,97.202-43.703
	c-1.074-2.867-2.071-5.739-3.122-8.609C865.043,1066.579,839.337,1070.293,815.169,1066.232z"/>
<path style="fill:#4A8531;" d="M967.815,1392.209c-32.789,4.806-64.89-3.82-95.897-13.673
	c-89.735-28.516-223.376-58.323-320.085-54.381c-0.798,0.033-0.822-1.396-0.03-1.617c116.366-32.334,236.559-30.801,347.607,4.508
	c48.022,15.269,95.152,36.826,145.06,41.25c-4.772-7.014-9.477-14.043-14.105-21.089c-87.321-69.782-179.285-114.59-293.502-122.762
	c-119.375-8.541-233.458,24.327-335.566,85.722c47.65,2.422,91.075,27.433,129.585,55.606c38.528,28.186,73.768,61.082,114.906,85.3
	c69.261,40.774,153.937,54.589,232.567,37.944c30.47-6.45,59.909-17.467,87.272-32.324c32.996-20.6,62.371-46.958,86.09-77.779
	c-1.83-2.642-3.611-5.295-5.421-7.941C1020.046,1375.666,994.443,1388.305,967.815,1392.209z"/>
<path style="fill:#4A8531;" d="M806.188,798.189c-11.731-30.994-10.194-64.198-7.224-96.596
	c8.596-93.764,9.031-230.689-15.572-324.298c-0.203-0.773,1.188-1.102,1.573-0.376c56.552,106.716,80.846,224.439,70.189,340.476
	c-3.239,35.275-9.62,70.786-10.914,106.032c0.345,0.728,0.615,1.501,0.723,2.34c1.985,15.491,4.447,30.97,7.139,46.441
	c57.145-108.005,86.151-213.78,68.383-335.59c-17.275-118.427-73.857-222.799-155.734-309.354
	c7.859,47.06-7.251,94.84-26.504,138.499c-19.262,43.679-43.829,85.157-58.656,130.534
	c-24.961,76.397-20.285,162.066,12.846,235.292c12.838,28.376,29.915,54.765,50.299,78.303
	c27.162,27.767,59.157,50.778,94.291,67.325c-1.767-10.023-3.391-20.049-4.866-30.081
	C822.987,831.061,812.662,815.291,806.188,798.189z"/>
<path style="fill:#4A8531;" d="M1212.893,1693.429c-33.239,11.801-68.536,9.434-102.946,5.561
	c-99.584-11.209-245.275-14.684-345.425,9.436c-0.827,0.199-1.147-1.288-0.365-1.682c114.8-57.828,240.601-81.089,363.841-67.197
	c52.677,5.938,105.715,18.48,158.135,13.262c-7.483-7.301-14.889-14.606-22.176-21.914
	c-103.95-53.104-207.832-79.703-326.884-64.844c-126.397,15.776-238.703,73.688-332.607,158.908
	c50.248-7.327,100.758,9.802,146.791,31.249c46.055,21.457,89.651,48.512,137.609,65.286
	c80.744,28.242,172.006,25.151,250.654-8.491c30.476-13.037,58.931-30.627,84.426-51.798c29.834-28,54.829-61.132,73.159-97.702
	c-2.731-2.631-5.413-5.263-8.118-7.894C1263.12,1666.043,1239.391,1684.022,1212.893,1693.429z"/>
<path style="fill:#29441D;" d="M1665.262,1255.873c0.66-0.538-0.331-1.693-1.117-1.309
	c-115.524,56.368-210.194,142.419-273.741,248.922c-28.464,47.705-51.356,100.147-90.395,139.391
	c-0.594,0.598,0.42,1.666,1.139,1.199c24.8-16.106,55.723-24.023,80.751-40.4c29.514-19.313,48.998-48.841,66.746-78.573
	C1500.008,1439.053,1585.437,1320.987,1665.262,1255.873z"/>
<path style="fill:#29441D;" d="M1140.386,1325.823c27.73-18.146,46.037-45.889,62.713-73.825
	c48.259-80.849,128.525-191.781,203.526-252.96c0.62-0.505-0.311-1.591-1.05-1.23c-108.542,52.962-197.491,133.812-257.198,233.879
	c-26.745,44.823-48.253,94.095-84.932,130.968c-0.559,0.561,0.394,1.565,1.07,1.126
	C1087.817,1348.649,1116.871,1341.21,1140.386,1325.823z"/>
<path style="fill:#3D712E;" d="M679.593,496.296c14.827-45.377,39.393-86.855,58.656-130.534
	c19.253-43.659,34.363-91.439,26.504-138.499c-0.004-0.022-0.005-0.044-0.01-0.066l-14.687-15.065
	c4.928,29.426,1.252,59.239-6.9,88.125c-0.815,2.889-1.675,5.768-2.575,8.637c-1.801,5.737-3.766,11.432-5.858,17.074
	c-1.047,2.821-2.126,5.629-3.233,8.423c-2.215,5.587-4.542,11.115-6.95,16.575c-7.223,16.38-15.192,32.45-23.114,48.532
	c-2.64,5.36-5.276,10.723-7.877,16.098c-10.403,21.502-20.251,43.215-27.664,65.904c-6.241,19.099-10.629,38.779-13.182,58.697
	c-3.832,29.879-3.537,60.297,0.823,90.111c4.358,29.814,12.781,59.023,25.205,86.483c0.064,0.141,0.137,0.278,0.202,0.42
	c1.964,4.323,4.023,8.6,6.179,12.827c0.757,1.483,1.583,2.927,2.363,4.398c1.517,2.861,3.024,5.726,4.627,8.54
	c0.978,1.717,2.026,3.392,3.036,5.09c1.496,2.516,2.977,5.038,4.54,7.512c1.127,1.782,2.317,3.523,3.479,5.283
	c1.537,2.331,3.063,4.669,4.66,6.96c1.248,1.791,2.553,3.54,3.837,5.306c1.601,2.2,3.193,4.403,4.848,6.563
	c1.355,1.769,2.759,3.501,4.15,5.242c1.668,2.089,3.336,4.178,5.055,6.227c1.45,1.728,2.942,3.422,4.427,5.12
	c1.745,1.995,3.493,3.985,5.285,5.938c1.537,1.675,3.109,3.319,4.68,4.963c1.124,1.174,2.206,2.389,3.346,3.547
	c-0.24-0.275-0.466-0.562-0.704-0.838c-20.384-23.539-37.461-49.927-50.299-78.303C659.308,658.362,654.632,572.693,679.593,496.296
	z"/>
<path style="fill:#29441D;" d="M1065.191,1370.784c-2.018-2.911-3.979-5.833-5.972-8.749c-8.944-13.088-17.714-26.212-26.154-39.415
	c-52.47-82.086-94.566-165.627-126.163-250.004c-1.084-2.895-2.093-5.796-3.153-8.693c21.039-13.014,46.659-19.917,67.561-33.595
	c25.491-16.68,42.32-42.183,57.648-67.864c44.362-74.32,118.147-176.294,187.092-232.533c0.57-0.464-0.285-1.462-0.964-1.13
	c-99.778,48.685-181.544,123.007-236.43,214.993c-23.996,40.216-43.443,84.299-75.713,117.907c-1.413-3.89-2.865-7.776-4.233-11.669
	c-20.728-58.961-36.249-118.304-46.608-177.824c-2.692-15.471-5.154-30.95-7.139-46.441c-0.108-0.84-0.379-1.612-0.723-2.34
	c1.294-35.247,7.675-70.757,10.914-106.032c10.657-116.037-13.638-233.76-70.189-340.476c-0.385-0.726-1.776-0.397-1.573,0.376
	c24.603,93.61,24.168,230.535,15.572,324.298c-2.969,32.398-4.507,65.602,7.224,96.596c6.473,17.102,16.799,32.872,25.973,48.946
	c1.475,10.032,3.1,20.058,4.866,30.081c9.439,53.535,23.034,106.91,40.739,159.988c3.263,9.785,6.67,19.558,10.212,29.321
	c-41.968-18.035-76.857-49.906-114.264-76.607c-87.186-62.23-191.904-97.493-302.833-102.047c-0.755-0.031-1.138,1.226-0.43,1.423
	c85.718,23.845,194.223,87.639,264.68,137.911c24.345,17.371,49.994,33.977,80.036,39.026c24.167,4.062,49.874,0.347,73.967,3.486
	c1.051,2.869,2.047,5.742,3.122,8.609c31.975,85.339,74.542,169.799,127.57,252.756c3.446,5.391,7.009,10.753,10.537,16.124
	c4.628,7.046,9.333,14.076,14.105,21.089c-49.908-4.424-97.038-25.98-145.06-41.25c-111.048-35.308-231.241-36.841-347.607-4.508
	c-0.792,0.22-0.768,1.65,0.03,1.617c96.709-3.942,230.35,25.865,320.085,54.381c31.007,9.853,63.107,18.479,95.897,13.673
	c26.628-3.904,52.231-16.543,78.482-21.236c1.81,2.647,3.591,5.299,5.421,7.941c59.317,85.668,129.545,169.06,212.239,251.982
	c7.287,7.307,14.693,14.612,22.176,21.914c-52.421,5.218-105.458-7.324-158.135-13.262c-123.24-13.892-249.041,9.369-363.841,67.197
	c-0.782,0.394-0.461,1.881,0.365,1.682c100.15-24.12,245.841-20.645,345.425-9.436c34.41,3.873,69.707,6.239,102.946-5.561
	c26.497-9.407,50.227-27.386,76.095-37.819c2.706,2.631,5.387,5.263,8.118,7.894c25.204,24.276,51.467,48.533,78.891,72.815
	c80.034,70.867,156.061,129.567,232.424,179.447c1.328,0.865,2.816,1.279,4.29,1.279c2.565,0,5.077-1.252,6.584-3.559
	c2.373-3.635,1.352-8.502-2.28-10.875c-75.718-49.459-151.147-107.7-230.602-178.056c-26.979-23.888-52.816-47.748-77.625-71.622
	c-4.386-4.221-8.687-8.445-13.007-12.668C1204.974,1551.511,1128.739,1462.435,1065.191,1370.784z"/>
</svg>
